<svg width="18" height="14" viewBox="0 0 18 14" fill="none" xmlns="http://www.w3.org/2000/svg">
<path d="M12.0751 0.190952H5.92491C2.65833 0.190952 0 2.83801 0 6.11585C0 7.87305 0.77722 9.43876 2.005 10.5201L1.76845 13.8205L5.9587 12.0295H12.0751C15.3417 12.0295 18 9.38243 18 6.10459C18 2.82674 15.3529 0.179688 12.0751 0.179688V0.190952Z" fill="white"/>
<path d="M5.39666 7.01741C5.96899 7.01741 6.43294 6.55345 6.43294 5.98112C6.43294 5.40879 5.96899 4.94482 5.39666 4.94482C4.82433 4.94482 4.36035 5.40879 4.36035 5.98112C4.36035 6.55345 4.82433 7.01741 5.39666 7.01741Z" fill="#7DA2FF"/>
<path d="M9.00014 7.01741C9.57247 7.01741 10.0365 6.55345 10.0365 5.98112C10.0365 5.40879 9.57247 4.94482 9.00014 4.94482C8.42781 4.94482 7.96387 5.40879 7.96387 5.98112C7.96387 6.55345 8.42781 7.01741 9.00014 7.01741Z" fill="#7DA2FF"/>
<path d="M12.5954 7.01741C13.1677 7.01741 13.6317 6.55345 13.6317 5.98112C13.6317 5.40879 13.1677 4.94482 12.5954 4.94482C12.023 4.94482 11.5591 5.40879 11.5591 5.98112C11.5591 6.55345 12.023 7.01741 12.5954 7.01741Z" fill="#7DA2FF"/>
</svg>
