<svg width="20" height="20" viewBox="0 0 20 20" fill="none" xmlns="http://www.w3.org/2000/svg">
<path d="M3.29618 17.94L12.4012 14.6616C13.0674 14.4213 13.2605 13.5752 12.7584 13.0753L6.9459 7.2876C6.44382 6.78767 5.59416 6.97995 5.35277 7.64332L2.06029 16.7094C1.78029 17.4786 2.52375 18.2188 3.29618 17.94Z" fill="#589BFF"/>
<path d="M12.122 12.4505L9.04193 9.3836L4.90944 8.84521L3.99219 11.393L12.122 12.4505Z" fill="#E1EFFF"/>
<path d="M11.0288 15.1613L3.17897 13.623L2.26172 16.1516L6.15282 16.9111L11.0288 15.1613Z" fill="#E1EFFF"/>
<path d="M10.9141 8.29711L11.1072 6.50889C11.1265 6.28776 11.3679 6.11471 11.5706 6.17239L12.7872 6.54734C12.9996 6.61464 13.2603 6.40313 13.2507 6.16278L13.1638 4.48031C13.1541 4.27841 13.3472 4.07652 13.55 4.08613L15.3748 4.1342C15.5969 4.1342 15.7997 3.91308 15.7611 3.70157L15.3073 1" stroke="#589BFF" stroke-width="0.8" stroke-miterlimit="10"/>
<path d="M13.0469 11.2967L19.3615 9.36426" stroke="#589BFF" stroke-width="0.8" stroke-miterlimit="10"/>
<path d="M8.36328 7.55643C8.36328 7.55643 12.1385 3.1051 10.4971 1.74951" stroke="#589BFF" stroke-width="0.8" stroke-miterlimit="10"/>
<path d="M13.5703 12.5465C13.5703 12.5465 16.129 11.4601 16.9207 12.7676" stroke="#589BFF" stroke-width="0.8" stroke-miterlimit="10"/>
<path d="M7.10938 6.64365L7.98802 3.36523" stroke="#589BFF" stroke-width="0.8" stroke-miterlimit="10"/>
<path d="M12.2656 10.2103L14.2739 8.52783" stroke="#589BFF" stroke-width="0.8" stroke-miterlimit="10"/>
<path d="M16.2071 8.97C16.5804 8.97 16.883 8.66869 16.883 8.29701C16.883 7.92533 16.5804 7.62402 16.2071 7.62402C15.8338 7.62402 15.5312 7.92533 15.5312 8.29701C15.5312 8.66869 15.8338 8.97 16.2071 8.97Z" fill="#589BFF"/>
<path d="M7.11189 2.66319C7.36785 2.66319 7.57534 2.45658 7.57534 2.20171C7.57534 1.94684 7.36785 1.74023 7.11189 1.74023C6.85593 1.74023 6.64844 1.94684 6.64844 2.20171C6.64844 2.45658 6.85593 2.66319 7.11189 2.66319Z" fill="#589BFF"/>
<path d="M19.5377 12.4405C19.7936 12.4405 20.0011 12.2339 20.0011 11.9791C20.0011 11.7242 19.7936 11.5176 19.5377 11.5176C19.2817 11.5176 19.0742 11.7242 19.0742 11.9791C19.0742 12.2339 19.2817 12.4405 19.5377 12.4405Z" fill="#589BFF"/>
</svg>
