<svg width="20" height="20" viewBox="0 0 20 20" fill="none" xmlns="http://www.w3.org/2000/svg">
<path d="M12.5942 4.0456L3.37891 13.2725L6.72158 16.6193L15.9369 7.39246L12.5942 4.0456Z" fill="#50A8FF"/>
<path d="M15.9553 2.32772L17.6643 4.03887C18.114 4.48917 18.114 5.22967 17.6643 5.67997L15.9553 7.39112L12.6172 4.04887L14.3262 2.33773C14.7759 1.88742 15.5155 1.88742 15.9652 2.33773L15.9553 2.32772Z" fill="#E1EFFF"/>
<path d="M2.01176 17.6879L3.38097 13.2749L5.05 14.946L6.71903 16.6171L2.31159 17.9881C2.13169 18.0481 1.9518 17.868 2.01176 17.6879Z" fill="#E1EFFF"/>
<path d="M13.7136 2.92848L12.8867 3.75635L16.2294 7.10321L17.0562 6.27534L13.7136 2.92848Z" fill="#50A8FF"/>
<path d="M2.52147 16.0569L2.01176 17.688C1.9518 17.8681 2.13169 18.0482 2.31159 17.9882L3.94064 17.4778L2.51147 16.0469L2.52147 16.0569Z" fill="#50A8FF"/>
</svg>
