<svg width="20" height="20" viewBox="0 0 20 20" fill="none" xmlns="http://www.w3.org/2000/svg">
<path d="M8.83317 13.2128L14.4357 7.61026L13.5575 6.73214L8.83317 11.4565L6.45817 9.08151L5.58005 9.95964L8.83317 13.2128ZM4.42296 17.0846C4.00199 17.0846 3.64567 16.9388 3.354 16.6471C3.06234 16.3555 2.9165 15.9991 2.9165 15.5782V4.42443C2.9165 4.00345 3.06234 3.64714 3.354 3.35547C3.64567 3.0638 4.00199 2.91797 4.42296 2.91797H15.5767C15.9977 2.91797 16.354 3.0638 16.6457 3.35547C16.9373 3.64714 17.0832 4.00345 17.0832 4.42443V15.5782C17.0832 15.9991 16.9373 16.3555 16.6457 16.6471C16.354 16.9388 15.9977 17.0846 15.5767 17.0846H4.42296Z" fill="#589BFF"/>
</svg>
