<svg width="20" height="20" viewBox="0 0 20 20" fill="none" xmlns="http://www.w3.org/2000/svg">
<path d="M4.42296 17.0807C4.00199 17.0807 3.64567 16.9349 3.354 16.6432C3.06234 16.3516 2.9165 15.9952 2.9165 15.5743V4.42052C2.9165 3.99955 3.06234 3.64323 3.354 3.35156C3.64567 3.0599 4.00199 2.91406 4.42296 2.91406H15.5767C15.9977 2.91406 16.354 3.0599 16.6457 3.35156C16.9373 3.64323 17.0832 3.99955 17.0832 4.42052V15.5743C17.0832 15.9952 16.9373 16.3516 16.6457 16.6432C16.354 16.9349 15.9977 17.0807 15.5767 17.0807H4.42296ZM4.42296 15.8307H15.5767C15.6409 15.8307 15.6996 15.804 15.753 15.7505C15.8064 15.6972 15.8332 15.6384 15.8332 15.5743V4.42052C15.8332 4.35635 15.8064 4.2976 15.753 4.24427C15.6996 4.1908 15.6409 4.16406 15.5767 4.16406H4.42296C4.3588 4.16406 4.30005 4.1908 4.24671 4.24427C4.19324 4.2976 4.1665 4.35635 4.1665 4.42052V15.5743C4.1665 15.6384 4.19324 15.6972 4.24671 15.7505C4.30005 15.804 4.3588 15.8307 4.42296 15.8307Z" fill="#777F90"/>
</svg>
