<svg width="20" height="20" viewBox="0 0 20 20" fill="none" xmlns="http://www.w3.org/2000/svg">
<path d="M4.42296 17.0846C4.00199 17.0846 3.64567 16.9388 3.354 16.6471C3.06234 16.3555 2.9165 15.9991 2.9165 15.5782V4.42443C2.9165 4.00345 3.06234 3.64714 3.354 3.35547C3.64567 3.0638 4.00199 2.91797 4.42296 2.91797H15.5767C15.9977 2.91797 16.354 3.0638 16.6457 3.35547C16.9373 3.64714 17.0832 4.00345 17.0832 4.42443V15.5782C17.0832 15.9991 16.9373 16.3555 16.6457 16.6471C16.354 16.9388 15.9977 17.0846 15.5767 17.0846H4.42296ZM4.42296 15.8346H15.5767C15.6409 15.8346 15.6996 15.8079 15.753 15.7544C15.8064 15.7011 15.8332 15.6423 15.8332 15.5782V4.42443C15.8332 4.36026 15.8064 4.30151 15.753 4.24818C15.6996 4.1947 15.6409 4.16797 15.5767 4.16797H4.42296C4.3588 4.16797 4.30005 4.1947 4.24671 4.24818C4.19324 4.30151 4.1665 4.36026 4.1665 4.42443V15.5782C4.1665 15.6423 4.19324 15.7011 4.24671 15.7544C4.30005 15.8079 4.3588 15.8346 4.42296 15.8346Z" fill="#777F90"/>
</svg>
