<svg width="21" height="22" viewBox="0 0 21 22" fill="none" xmlns="http://www.w3.org/2000/svg">
<path d="M18.1553 18.2355L15.2129 15.2805L7.07186 15.263C6.66644 15.2622 6.31967 15.117 6.03154 14.8277C5.74341 14.5385 5.59977 14.1911 5.60064 13.7855L5.60174 13.2728L14.6723 13.2922C15.0865 13.2931 15.4414 13.1464 15.737 12.852C16.0327 12.5576 16.1809 12.2033 16.1818 11.789L16.1942 6.01982L16.7071 6.02092C17.1125 6.02179 17.4593 6.1669 17.7474 6.45627C18.0355 6.74564 18.1792 7.09303 18.1783 7.49845L18.1553 18.2355ZM3.90671 11.5321L5.08881 10.355L13.0119 10.372C13.0866 10.3721 13.1481 10.3482 13.1962 10.3003C13.2444 10.2523 13.2686 10.1909 13.2687 10.1161L13.2805 4.60337C13.2807 4.52851 13.2568 4.467 13.2088 4.41885C13.1609 4.37069 13.0995 4.34653 13.0248 4.34637L4.17858 4.32744C4.10386 4.32728 4.04235 4.35118 3.99406 4.39913C3.9459 4.44708 3.92174 4.50849 3.92158 4.58335L3.90671 11.5321ZM2.65025 14.5486L2.67158 4.58067C2.67247 4.16637 2.82073 3.81203 3.11636 3.51766C3.41199 3.2233 3.76695 3.07656 4.18126 3.07744L13.0275 3.09637C13.4417 3.09726 13.7959 3.24552 14.0903 3.54115C14.3847 3.83678 14.5314 4.19174 14.5305 4.60605L14.5187 10.1187C14.5178 10.5331 14.3696 10.8874 14.0739 11.1818C13.7783 11.4761 13.4234 11.6229 13.0092 11.622L5.6053 11.6061L2.65025 14.5486Z" fill="#777F90"/>
</svg>
