<svg width="152" height="152" viewBox="0 0 152 152" fill="none" xmlns="http://www.w3.org/2000/svg">
<circle cx="76" cy="76" r="76" fill="white"/>
<path d="M99.4045 87.6212C104.443 87.6212 108.528 83.5908 108.528 78.6192C108.528 73.6475 104.443 69.6172 99.4045 69.6172C94.3659 69.6172 90.2812 73.6475 90.2812 78.6192C90.2812 83.5908 94.3659 87.6212 99.4045 87.6212Z" fill="#589BFF" fill-opacity="0.2"/>
<path d="M96.1887 78.2468C97.4428 78.2468 98.4595 77.2436 98.4595 76.0062C98.4595 74.7688 97.4428 73.7656 96.1887 73.7656C94.9346 73.7656 93.918 74.7688 93.918 76.0062C93.918 77.2436 94.9346 78.2468 96.1887 78.2468Z" fill="white"/>
<path d="M52.7247 87.6212C57.7633 87.6212 61.848 83.5908 61.848 78.6192C61.848 73.6475 57.7633 69.6172 52.7247 69.6172C47.6861 69.6172 43.6016 73.6475 43.6016 78.6192C43.6016 83.5908 47.6861 87.6212 52.7247 87.6212Z" fill="#589BFF" fill-opacity="0.2"/>
<path d="M49.509 78.2507C50.7631 78.2507 51.7798 77.2476 51.7798 76.0101C51.7798 74.7727 50.7631 73.7695 49.509 73.7695C48.2549 73.7695 47.2383 74.7727 47.2383 76.0101C47.2383 77.2476 48.2549 78.2507 49.509 78.2507Z" fill="white"/>
<path d="M75.9996 87.7578C72.2016 87.7578 69.0466 90.4544 68.4236 93.9838C68.3031 94.658 68.8255 95.2529 69.4887 95.2529H82.5305C83.1736 95.2529 83.7161 94.6382 83.5956 93.9838C82.9726 90.4544 79.8176 87.7578 76.0196 87.7578H75.9996Z" fill="#589BFF" fill-opacity="0.2"/>
<path d="M152 75.9617C152 34.0053 117.979 0 76 0C34.0212 0 0 34.0053 0 75.9617C0 92.3794 5.22477 107.568 14.0867 120C14.0064 118.414 13.9461 116.827 13.9461 115.221C13.9461 73.7409 41.5971 40.1124 75.7589 39.9537C74.2317 36.3252 74.7943 30.3569 76.623 25.5783C79.155 18.9557 83.3348 16.5565 87.9165 18.3014C92.4982 20.0463 94.0053 24.6266 91.4733 31.2492C91.1518 32.082 90.77 32.9346 90.3681 33.7475C94.1862 31.6656 97.12 32.2009 98.6272 34.8381C100.154 37.5347 99.0492 40.3701 95.1507 42.571C94.7689 42.7892 94.3871 42.9874 93.9651 43.1659C119.466 52.505 138.054 81.236 138.054 115.221C138.054 116.827 137.994 118.414 137.913 120C146.775 107.568 152 92.3794 152 75.9617Z" fill="#589BFF" fill-opacity="0.2"/>
</svg>
