<svg width="16" height="16" viewBox="0 0 16 16" fill="none" xmlns="http://www.w3.org/2000/svg">
<g id="Mobile_Button_Icon">
<path id="Vector" d="M7.99696 12.3132C7.75762 12.3132 7.55396 12.2279 7.38596 12.0575C7.21784 11.8871 7.13379 11.6822 7.13379 11.443C7.13379 11.2037 7.21901 10.9999 7.38946 10.8318C7.5599 10.6638 7.76473 10.5798 8.00396 10.5798C8.24329 10.5798 8.44696 10.6651 8.61496 10.8355C8.78307 11.0058 8.86712 11.2107 8.86712 11.45C8.86712 11.6893 8.7819 11.893 8.61146 12.061C8.44101 12.2291 8.23618 12.3132 7.99696 12.3132ZM7.99696 8.867C7.75762 8.867 7.55396 8.78178 7.38596 8.61133C7.21784 8.44089 7.13379 8.23606 7.13379 7.99683C7.13379 7.7575 7.21901 7.55383 7.38946 7.38583C7.5599 7.21772 7.76473 7.13367 8.00396 7.13367C8.24329 7.13367 8.44696 7.21889 8.61496 7.38933C8.78307 7.55978 8.86712 7.76461 8.86712 8.00383C8.86712 8.24317 8.7819 8.44683 8.61146 8.61483C8.44101 8.78295 8.23618 8.867 7.99696 8.867ZM7.99696 5.42083C7.75762 5.42083 7.55396 5.33561 7.38596 5.16517C7.21784 4.99483 7.13379 4.79 7.13379 4.55067C7.13379 4.31133 7.21901 4.10767 7.38946 3.93967C7.5599 3.77156 7.76473 3.6875 8.00396 3.6875C8.24329 3.6875 8.44696 3.77272 8.61496 3.94317C8.78307 4.11361 8.86712 4.31844 8.86712 4.55767C8.86712 4.797 8.7819 5.00072 8.61146 5.16883C8.44101 5.33683 8.23618 5.42083 7.99696 5.42083Z" fill="#777F90"/>
</g>
</svg>
