<svg width="16" height="16" viewBox="0 0 16 16" fill="none" xmlns="http://www.w3.org/2000/svg">
<path d="M3.80523 13.2677C3.50512 13.2677 3.25145 13.1622 3.04423 12.951C2.83701 12.7399 2.7334 12.4882 2.7334 12.1959V3.80621C2.7334 3.51388 2.83701 3.26215 3.04423 3.05104C3.25145 2.83993 3.50512 2.73438 3.80523 2.73438H12.1949C12.495 2.73438 12.7487 2.83993 12.9559 3.05104C13.1631 3.26215 13.2667 3.51388 13.2667 3.80621V12.1959C13.2667 12.4882 13.1631 12.7399 12.9559 12.951C12.7487 13.1622 12.495 13.2677 12.1949 13.2677H3.80523ZM3.80523 12.401H12.1949C12.2462 12.401 12.2932 12.3797 12.3359 12.3369C12.3787 12.2942 12.4001 12.2472 12.4001 12.1959V3.80621C12.4001 3.75488 12.3787 3.70787 12.3359 3.66521C12.2932 3.62243 12.2462 3.60104 12.1949 3.60104H3.80523C3.7539 3.60104 3.7069 3.62243 3.66423 3.66521C3.62145 3.70787 3.60007 3.75488 3.60007 3.80621V12.1959C3.60007 12.2472 3.62145 12.2942 3.66423 12.3369C3.7069 12.3797 3.7539 12.401 3.80523 12.401ZM4.90007 11.0344H11.1512L9.05906 8.24471L7.38723 10.4139L6.3539 9.10871L4.90007 11.0344Z" fill="#777F90"/>
</svg>
