<svg width="20" height="21" viewBox="0 0 20 21" fill="none" xmlns="http://www.w3.org/2000/svg">
<path d="M8.83317 13.7089L14.4357 8.10635L13.5575 7.22823L8.83317 11.9526L6.45817 9.5776L5.58005 10.4557L8.83317 13.7089ZM4.42296 17.5807C4.00199 17.5807 3.64567 17.4349 3.354 17.1432C3.06234 16.8516 2.9165 16.4952 2.9165 16.0743V4.92052C2.9165 4.49955 3.06234 4.14323 3.354 3.85156C3.64567 3.5599 4.00199 3.41406 4.42296 3.41406H15.5767C15.9977 3.41406 16.354 3.5599 16.6457 3.85156C16.9373 4.14323 17.0832 4.49955 17.0832 4.92052V16.0743C17.0832 16.4952 16.9373 16.8516 16.6457 17.1432C16.354 17.4349 15.9977 17.5807 15.5767 17.5807H4.42296Z" fill="#589BFF"/>
</svg>
