<svg width="20" height="20" viewBox="0 0 20 20" fill="none" xmlns="http://www.w3.org/2000/svg">
<path d="M8.08366 15.1916L7.20553 14.3135L9.1222 12.3968L7.20553 10.4802L8.08366 9.60203L10.0003 11.5187L11.917 9.60203L12.7951 10.4802L10.8785 12.3968L12.7951 14.3135L11.917 15.1916L10.0003 13.2749L8.08366 15.1916ZM4.42345 17.9177C4.00248 17.9177 3.64616 17.7718 3.35449 17.4802C3.06283 17.1885 2.91699 16.8322 2.91699 16.4112V5.25745C2.91699 4.83648 3.06283 4.48016 3.35449 4.18849C3.64616 3.89682 4.00248 3.75099 4.42345 3.75099H5.5772V1.98828H6.85928V3.75099H13.1735V1.98828H14.4235V3.75099H15.5772C15.9982 3.75099 16.3545 3.89682 16.6462 4.18849C16.9378 4.48016 17.0837 4.83648 17.0837 5.25745V16.4112C17.0837 16.8322 16.9378 17.1885 16.6462 17.4802C16.3545 17.7718 15.9982 17.9177 15.5772 17.9177H4.42345ZM4.42345 16.6677H15.5772C15.6414 16.6677 15.7001 16.6409 15.7535 16.5874C15.8069 16.5341 15.8337 16.4754 15.8337 16.4112V8.59078H4.16699V16.4112C4.16699 16.4754 4.19373 16.5341 4.2472 16.5874C4.30053 16.6409 4.35928 16.6677 4.42345 16.6677ZM4.16699 7.34078H15.8337V5.25745C15.8337 5.19328 15.8069 5.13453 15.7535 5.0812C15.7001 5.02772 15.6414 5.00099 15.5772 5.00099H4.42345C4.35928 5.00099 4.30053 5.02772 4.2472 5.0812C4.19373 5.13453 4.16699 5.19328 4.16699 5.25745V7.34078Z" fill="#777F90"/>
</svg>
