<svg width="24" height="24" viewBox="0 0 24 24" fill="none" xmlns="http://www.w3.org/2000/svg">
<g clip-path="url(#clip0_4108_187055)">
<path d="M6.4396 20.4094C9.0021 20.4094 11.0794 16.6451 11.0794 12.0016C11.0794 7.35805 9.0021 3.59375 6.4396 3.59375C3.87711 3.59375 1.7998 7.35805 1.7998 12.0016C1.7998 16.6451 3.87711 20.4094 6.4396 20.4094Z" fill="#E5E8EB"/>
<path d="M17.5597 20.4094C20.1222 20.4094 22.1995 16.6451 22.1995 12.0016C22.1995 7.35805 20.1222 3.59375 17.5597 3.59375C14.9972 3.59375 12.9199 7.35805 12.9199 12.0016C12.9199 16.6451 14.9972 20.4094 17.5597 20.4094Z" fill="#E5E8EB"/>
<path d="M5.25045 14.3446C6.54512 14.3446 7.59465 13.2951 7.59465 12.0004C7.59465 10.7058 6.54512 9.65625 5.25045 9.65625C3.95578 9.65625 2.90625 10.7058 2.90625 12.0004C2.90625 13.2951 3.95578 14.3446 5.25045 14.3446Z" fill="#191F28"/>
<path d="M16.6225 14.3446C17.9172 14.3446 18.9667 13.2951 18.9667 12.0004C18.9667 10.7058 17.9172 9.65625 16.6225 9.65625C15.3279 9.65625 14.2783 10.7058 14.2783 12.0004C14.2783 13.2951 15.3279 14.3446 16.6225 14.3446Z" fill="#191F28"/>
<path d="M4.29185 11.7419C4.60135 11.7419 4.85225 11.491 4.85225 11.1815C4.85225 10.872 4.60135 10.6211 4.29185 10.6211C3.98234 10.6211 3.73145 10.872 3.73145 11.1815C3.73145 11.491 3.98234 11.7419 4.29185 11.7419Z" fill="white"/>
<path d="M15.7254 11.7419C16.0349 11.7419 16.2858 11.491 16.2858 11.1815C16.2858 10.872 16.0349 10.6211 15.7254 10.6211C15.4159 10.6211 15.165 10.872 15.165 11.1815C15.165 11.491 15.4159 11.7419 15.7254 11.7419Z" fill="white"/>
</g>
<defs>
<clipPath id="clip0_4108_187055">
<rect width="24" height="24" fill="white"/>
</clipPath>
</defs>
</svg>
