<svg width="20" height="20" viewBox="0 0 20 20" fill="none" xmlns="http://www.w3.org/2000/svg">
<path d="M1.49902 16.0936V14.2409C1.49902 13.8115 1.60986 13.4282 1.83152 13.0911C2.05319 12.7541 2.34923 12.4918 2.71965 12.3045C3.51159 11.9171 4.30791 11.6184 5.10861 11.4084C5.90944 11.1986 6.78951 11.0936 7.74882 11.0936C8.70826 11.0936 9.58833 11.1986 10.389 11.4084C11.1899 11.6184 11.9862 11.9171 12.7782 12.3045C13.1486 12.4918 13.4447 12.7541 13.6663 13.0911C13.888 13.4282 13.9988 13.8115 13.9988 14.2409V16.0936H1.49902ZM15.6655 16.0936V14.1384C15.6655 13.5915 15.5316 13.0702 15.2638 12.5745C14.9959 12.0789 14.6159 11.6537 14.1238 11.2989C14.6826 11.3822 15.2131 11.5111 15.7153 11.6857C16.2174 11.8605 16.6965 12.0669 17.1528 12.3051C17.5833 12.5348 17.9158 12.8056 18.1503 13.1174C18.3847 13.4291 18.5019 13.7694 18.5019 14.1384V16.0936H15.6655ZM7.74882 9.7474C6.94673 9.7474 6.26014 9.46184 5.68902 8.89073C5.11791 8.31948 4.83236 7.63281 4.83236 6.83073C4.83236 6.02865 5.11791 5.34205 5.68902 4.77094C6.26014 4.19969 6.94673 3.91406 7.74882 3.91406C8.5509 3.91406 9.23757 4.19969 9.80882 4.77094C10.3799 5.34205 10.6655 6.02865 10.6655 6.83073C10.6655 7.63281 10.3799 8.31948 9.80882 8.89073C9.23757 9.46184 8.5509 9.7474 7.74882 9.7474ZM14.9442 6.83073C14.9442 7.63281 14.6587 8.31948 14.0876 8.89073C13.5165 9.46184 12.8299 9.7474 12.0278 9.7474C11.9337 9.7474 11.8141 9.7367 11.6688 9.71531C11.5234 9.69392 11.4037 9.67045 11.3099 9.6449C11.6385 9.24976 11.891 8.81142 12.0676 8.3299C12.244 7.84837 12.3321 7.34837 12.3321 6.8299C12.3321 6.31129 12.2422 5.81316 12.0622 5.33552C11.8822 4.85802 11.6314 4.41844 11.3099 4.01677C11.4294 3.97399 11.5491 3.94622 11.6688 3.93344C11.7884 3.92052 11.9081 3.91406 12.0278 3.91406C12.8299 3.91406 13.5165 4.19969 14.0876 4.77094C14.6587 5.34205 14.9442 6.02865 14.9442 6.83073ZM2.74882 14.8436H12.7488V14.2409C12.7488 14.0669 12.7053 13.912 12.6182 13.7764C12.5312 13.6407 12.3932 13.522 12.204 13.4205C11.5182 13.0669 10.812 12.799 10.0855 12.6168C9.35895 12.4347 8.58007 12.3436 7.74882 12.3436C6.91771 12.3436 6.13889 12.4347 5.41236 12.6168C4.68583 12.799 3.97965 13.0669 3.29382 13.4205C3.10465 13.522 2.96652 13.6407 2.87944 13.7764C2.79236 13.912 2.74882 14.0669 2.74882 14.2409V14.8436ZM7.74882 8.4974C8.20715 8.4974 8.59951 8.3342 8.9259 8.00781C9.25229 7.68142 9.41548 7.28906 9.41548 6.83073C9.41548 6.3724 9.25229 5.98003 8.9259 5.65365C8.59951 5.32726 8.20715 5.16406 7.74882 5.16406C7.29048 5.16406 6.89812 5.32726 6.57173 5.65365C6.24534 5.98003 6.08215 6.3724 6.08215 6.83073C6.08215 7.28906 6.24534 7.68142 6.57173 8.00781C6.89812 8.3342 7.29048 8.4974 7.74882 8.4974Z" fill="#777F90"/>
</svg>
