<svg width="304" height="74" viewBox="0 0 304 74" fill="none" xmlns="http://www.w3.org/2000/svg">
<g filter="url(#filter0_d_3976_91208)">
<rect x="10" y="10" width="280" height="40" rx="12" fill="white"/>
<path d="M47.8027 25.2373V26.0371C47.8027 26.8877 47.8027 27.9287 47.5171 29.2744H49.1611V30.0869H44.4512V31.8643C46.6094 31.9531 47.8979 32.6895 47.9043 33.9209C47.8979 35.2603 46.4126 36.0029 43.9688 36.0029C41.4932 36.0029 40.0142 35.2603 40.0078 33.9209C40.0142 32.6895 41.2964 31.9595 43.4736 31.8643V30.0869H38.8271V29.2744H46.5142C46.8188 27.9033 46.8188 26.9131 46.8125 26.0498H40.1348V25.2373H47.8027ZM41.0234 33.9209C41.0107 34.7334 42.1216 35.1968 43.9688 35.2031C45.7778 35.1968 46.8887 34.7334 46.9014 33.9209C46.8887 33.1211 45.7778 32.6641 43.9688 32.6514C42.1216 32.6641 41.0107 33.1211 41.0234 33.9209ZM59.0381 25.3516V26.1895C59.0381 27.0654 59.0381 28.0938 58.7397 29.5029H60.3965V30.3281H50.0625V29.5029H57.7368C58.0542 28.0811 58.0542 27.0654 58.0479 26.1895V26.1768H51.3701V25.3516H59.0381ZM51.332 35.876V31.8896H59.0889V35.876H51.332ZM52.3223 35.0635H58.0986V32.6768H52.3223V35.0635ZM70.1211 24.7549V28.4746H71.8223V29.3125H70.1211V33.21H69.1309V24.7549H70.1211ZM61.3232 26.9512V26.1387H64.1924V24.7549H65.1826V26.1387H68.0518V26.9512H61.3232ZM61.9707 29.6807C61.9644 28.3984 63.0562 27.5732 64.6875 27.5732C66.2998 27.5732 67.3916 28.3984 67.4043 29.6807C67.3916 30.9502 66.2998 31.769 64.6875 31.7627C63.0562 31.769 61.9644 30.9502 61.9707 29.6807ZM62.9229 29.6807C62.9165 30.4741 63.6211 30.9883 64.6875 30.9756C65.7412 30.9883 66.4521 30.4741 66.4648 29.6807C66.4521 28.8745 65.7412 28.354 64.6875 28.3604C63.6211 28.354 62.9165 28.8745 62.9229 29.6807ZM63.0625 35.7871V32.5371H64.04V34.9492H70.6416V35.7871H63.0625ZM81.8896 24.7422V31.3564H80.8867V28.4111H78.6016V27.5732H80.8867V24.7422H81.8896ZM72.584 30.4551C74.2471 29.8647 75.4531 28.354 75.4531 26.748V26.3037H72.9014V25.4785H78.9824V26.3037H76.4561V26.748C76.4561 28.2017 77.5859 29.6108 79.2363 30.2012L78.7158 30.9883C77.4463 30.5249 76.4624 29.5791 75.9736 28.4111C75.4849 29.7188 74.4438 30.7534 73.1045 31.2422L72.584 30.4551ZM74.5137 35.876V31.915H81.8896V35.876H74.5137ZM75.5039 35.0635H80.9121V32.7148H75.5039V35.0635ZM94.0518 30.6963V31.5088H83.7686V30.6963H94.0518ZM84.9111 27.3828C84.9111 25.9673 86.46 25.1357 88.9102 25.1484C91.335 25.1357 92.8901 25.9673 92.8965 27.3828C92.8901 28.7856 91.335 29.6299 88.9102 29.6299C86.46 29.6299 84.9111 28.7856 84.9111 27.3828ZM85.1016 35.7871V32.499H86.1045V34.9492H92.9092V35.7871H85.1016ZM85.9395 27.3828C85.9331 28.2778 87.0884 28.8174 88.9102 28.8174C90.7192 28.8174 91.8745 28.2778 91.8809 27.3828C91.8745 26.5005 90.7192 25.9482 88.9102 25.9482C87.0884 25.9482 85.9331 26.5005 85.9395 27.3828ZM108.562 30.3281V31.1279H98.2666V30.3281H102.926V29.0078H99.5742V25.2754H107.28V26.0752H100.552V28.1953H107.356V29.0078H103.891V30.3281H108.562ZM99.5107 33.9844C99.5044 32.6958 100.971 31.9595 103.408 31.9531C105.827 31.9595 107.28 32.6958 107.293 33.9844C107.28 35.2856 105.827 36.0156 103.408 36.0283C100.971 36.0156 99.5044 35.2856 99.5107 33.9844ZM100.526 33.9844C100.514 34.7778 101.599 35.2349 103.408 35.2285C105.198 35.2349 106.284 34.7778 106.29 33.9844C106.284 33.2036 105.198 32.7402 103.408 32.7402C101.599 32.7402 100.514 33.2036 100.526 33.9844ZM112.523 25.6182C114.187 25.6245 115.367 27.1543 115.38 29.5537C115.367 31.9595 114.187 33.4829 112.523 33.4766C110.848 33.4829 109.673 31.9595 109.68 29.5537C109.673 27.1543 110.848 25.6245 112.523 25.6182ZM110.619 29.5537C110.625 31.3882 111.406 32.5942 112.523 32.5879C113.653 32.5942 114.415 31.3882 114.415 29.5537C114.415 27.7192 113.653 26.5132 112.523 26.5068C111.406 26.5132 110.625 27.7192 110.619 29.5537ZM117.246 36.0283V24.7422H118.236V29.249H120.128V30.1123H118.236V36.0283H117.246ZM130.056 24.7422V36.0537H129.065V24.7422H130.056ZM121.372 26.6211V25.7959H126.628V29.8076H122.413V32.4736C124.286 32.48 125.955 32.3911 127.974 32.0674L128.075 32.9053C126 33.229 124.286 33.3115 122.337 33.3115H121.397V28.9951H125.625V26.6211H121.372ZM145.557 30.4805V31.3057H140.974V33.6162H139.971V31.3057H135.223V30.4805H145.557ZM136.391 27.3066C136.384 25.9038 137.965 25.0405 140.377 25.0342C142.789 25.0405 144.351 25.9038 144.351 27.3066C144.351 28.6968 142.789 29.5601 140.377 29.5537C137.965 29.5601 136.384 28.6968 136.391 27.3066ZM136.556 35.7871V32.4863H137.559V34.9365H144.401V35.7871H136.556ZM137.457 27.3066C137.444 28.1826 138.619 28.7412 140.377 28.7412C142.129 28.7412 143.297 28.1826 143.297 27.3066C143.297 26.4053 142.129 25.853 140.377 25.8467C138.619 25.853 137.444 26.4053 137.457 27.3066ZM149.581 25.4277C150.533 25.4214 151.339 25.7832 151.866 26.3799H154.824V24.7422H155.827V31.4326H154.824V29.8203H151.866C151.346 30.417 150.533 30.7788 149.581 30.7725C147.893 30.7788 146.642 29.6743 146.648 28.1064C146.642 26.5259 147.893 25.4214 149.581 25.4277ZM147.601 28.1064C147.601 29.1538 148.426 29.9282 149.581 29.9219C150.698 29.9282 151.536 29.1538 151.536 28.1064C151.536 27.0337 150.698 26.2847 149.581 26.291C148.426 26.2847 147.601 27.0337 147.601 28.1064ZM148.299 33.8447C148.292 32.4863 149.74 31.6992 152.082 31.6992C154.418 31.6992 155.865 32.4863 155.865 33.8447C155.865 35.2158 154.418 36.0029 152.082 36.0029C149.74 36.0029 148.292 35.2158 148.299 33.8447ZM149.276 33.8447C149.27 34.6953 150.349 35.2095 152.082 35.2031C153.815 35.2095 154.894 34.6953 154.888 33.8447C154.894 32.9878 153.815 32.48 152.082 32.4736C150.349 32.48 149.27 32.9878 149.276 33.8447ZM152.342 27.1924C152.444 27.4717 152.501 27.7764 152.501 28.1064C152.501 28.4238 152.444 28.7222 152.349 28.9951H154.824V27.1924H152.342ZM161.769 27.167C161.775 28.6904 162.975 30.0615 164.663 30.5947L164.155 31.3945C162.841 30.9438 161.8 30.0171 161.286 28.8301C160.797 30.1123 159.737 31.1279 158.392 31.623L157.871 30.8232C159.566 30.2329 160.759 28.7666 160.766 27.167V26.5068H158.125V25.6943H164.371V26.5068H161.769V27.167ZM159.737 35.7871V32.2451H160.728V34.9492H167.38V35.7871H159.737ZM166.034 33.0322V24.7549H167.024V33.0322H166.034ZM178.615 24.7422V36.0283H177.65V24.7422H178.615ZM169.081 29.6172C169.087 27.2178 170.04 25.7007 171.506 25.6943C172.877 25.7007 173.804 27.021 173.931 29.1475H175.391V24.9834H176.343V35.457H175.391V29.9727H173.937C173.842 32.1689 172.896 33.5464 171.506 33.54C170.04 33.5464 169.087 32.0166 169.081 29.6172ZM170.021 29.6172C170.008 31.4453 170.592 32.6006 171.506 32.5879C172.426 32.6006 173.01 31.4453 173.004 29.6172C173.01 27.7827 172.426 26.6338 171.506 26.6338C170.592 26.6338 170.008 27.7827 170.021 29.6172ZM189.838 24.7422V36.0283H188.886V24.7422H189.838ZM180.189 32.8672C182.64 31.4136 183.871 29.376 184.062 27.0146H180.672V26.1895H185.052C185.052 27.3003 184.874 28.373 184.487 29.376H186.512V25.0469H187.464V35.457H186.512V30.1885H184.119C183.439 31.5024 182.348 32.6641 180.773 33.5908L180.189 32.8672ZM203.98 24.7422V30.6074H203.003V24.7422H203.98ZM194.84 29.833C196.522 29.2744 197.728 27.8906 197.734 26.3418V26.2148H195.094V25.3896H201.34V26.2148H198.737V26.3418C198.744 27.8081 199.943 29.103 201.645 29.6045L201.149 30.3789C199.816 29.96 198.756 29.0649 198.255 27.9097C197.766 29.1729 196.687 30.1567 195.31 30.6201L194.84 29.833ZM196.655 31.9404V31.1533H203.993V33.8447H197.658V35.1016H204.399V35.9014H196.681V33.0957H203.003V31.9404H196.655ZM216.231 30.5186V31.3438H211.636V33.6543H210.646V31.3438H205.897V30.5186H216.231ZM207.218 35.7871V32.5371H208.221V34.9492H215.076V35.7871H207.218ZM207.243 29.2236V25.3008H214.886V29.2236H207.243ZM208.221 28.4238H213.896V26.0879H208.221V28.4238ZM222.782 26.6973V27.5098H217.12V26.6973H219.469V25.085H220.459V26.6973H222.782ZM217.526 30.8359C217.526 29.3379 218.548 28.2778 219.951 28.2715C221.373 28.2778 222.389 29.3379 222.401 30.8359C222.389 32.353 221.373 33.4194 219.951 33.4258C218.548 33.4194 217.526 32.353 217.526 30.8359ZM218.415 30.8359C218.415 31.8389 219.056 32.5562 219.951 32.5498C220.853 32.5562 221.513 31.8389 221.513 30.8359C221.513 29.8457 220.853 29.1221 219.951 29.1094C219.056 29.1221 218.415 29.8457 218.415 30.8359ZM223.366 35.4697V25.0215H224.306V29.5029H225.804V24.7422H226.756V36.0283H225.804V30.3281H224.306V35.4697H223.366ZM238.715 33.7559V34.5811H228.381V33.7559H233.027V31.3184H229.6V25.542H230.603V27.5859H236.468V25.542H237.445V31.3184H234.005V33.7559H238.715ZM230.603 30.5059H236.468V28.3984H230.603V30.5059ZM242.968 27.9541C242.968 29.7505 243.844 31.6865 245.342 32.5752L244.771 33.3496C243.679 32.6895 242.898 31.4834 242.504 30.106C242.092 31.6104 241.254 32.9053 240.124 33.5908L239.489 32.8418C241.051 31.9277 242.003 29.9282 242.003 27.9922V25.8086H242.968V27.9541ZM244.098 29.6426V28.792H246.015V24.9834H246.954V35.457H246.015V29.6426H244.098ZM248.325 36.0283V24.7422H249.29V36.0283H248.325ZM261.186 33.7432V34.5811H250.852V33.7432H253.416V30.7026C252.451 30.2012 251.867 29.3887 251.867 28.3604C251.867 26.6147 253.581 25.4658 255.993 25.4531C258.405 25.4658 260.119 26.6147 260.119 28.3604C260.119 29.3696 259.554 30.1694 258.621 30.6709V33.7432H261.186ZM252.832 28.3604C252.826 29.6235 254.14 30.4678 255.993 30.4678C257.828 30.4678 259.154 29.6235 259.154 28.3604C259.154 27.0972 257.828 26.2656 255.993 26.2783C254.14 26.2656 252.826 27.0972 252.832 28.3604ZM254.394 33.7432H257.618V31.0581C257.129 31.1851 256.583 31.2549 255.993 31.2549C255.416 31.2549 254.876 31.1914 254.394 31.0645V33.7432Z" fill="#4B4F52"/>
<path d="M261.934 58.0268C262.734 59.0355 264.266 59.0355 265.066 58.0268L275.215 45.2435C276.255 43.9328 275.322 42 273.648 42H253.352C251.678 42 250.745 43.9328 251.785 45.2435L261.934 58.0268Z" fill="white"/>
</g>
<defs>
<filter id="filter0_d_3976_91208" x="0" y="0" width="304" height="74" filterUnits="userSpaceOnUse" color-interpolation-filters="sRGB">
<feFlood flood-opacity="0" result="BackgroundImageFix"/>
<feColorMatrix in="SourceAlpha" type="matrix" values="0 0 0 0 0 0 0 0 0 0 0 0 0 0 0 0 0 0 127 0" result="hardAlpha"/>
<feOffset dx="2" dy="2"/>
<feGaussianBlur stdDeviation="6"/>
<feColorMatrix type="matrix" values="0 0 0 0 0 0 0 0 0 0 0 0 0 0 0 0 0 0 0.12 0"/>
<feBlend mode="normal" in2="BackgroundImageFix" result="effect1_dropShadow_3976_91208"/>
<feBlend mode="normal" in="SourceGraphic" in2="effect1_dropShadow_3976_91208" result="shape"/>
</filter>
</defs>
</svg>
