<svg width="304" height="74" viewBox="0 0 304 74" fill="none" xmlns="http://www.w3.org/2000/svg">
<g filter="url(#filter0_d_3976_27870)">
<rect x="10" y="10" width="280" height="40" rx="12" fill="white"/>
<path d="M74.7231 28.208C74.7104 30.0171 76.0181 32.0103 77.6558 32.791L77.0845 33.5781C75.8149 32.9561 74.7422 31.623 74.2344 30.0933C73.7139 31.75 72.584 33.21 71.3208 33.8574L70.7114 33.0703C72.3364 32.2769 73.7329 30.1313 73.7456 28.208V26.7354H71.1177V25.9102H77.2622V26.7354H74.7231V28.208ZM78.646 36.0283V24.7422H79.6362V29.3125H81.5278V30.1631H79.6362V36.0283H78.646ZM87.8374 26.3418C87.8311 27.8525 89.8433 29.1348 91.811 29.4268L91.4429 30.2139C89.6846 29.9155 87.9644 28.9761 87.2788 27.6177C86.5933 28.9761 84.873 29.9155 83.1401 30.2139L82.7466 29.4268C84.708 29.1348 86.7139 27.8525 86.7202 26.3418V26.2656H83.1021V25.4531H91.4429V26.2656H87.8374V26.3418ZM82.1372 32.0039V31.1787H92.4204V32.0039H87.7485V36.0283H86.771V32.0039H82.1372ZM105.801 35.0762V35.876H97.8921V32.2197H101.282V30.874H96.6353V30.0488H106.918V30.874H102.259V32.2197H105.687V33.0449H98.895V35.0762H105.801ZM97.9683 28.9443V25.1865H105.611V28.9443H97.9683ZM98.9458 28.1445H104.621V25.999H98.9458V28.1445ZM116.999 28.1699V28.9697H109.267V25.1611H110.257V28.1699H116.999ZM107.858 31.3184V30.5059H118.192V31.3184H107.858ZM109.204 35.749V32.4736H110.194V34.9238H117.062V35.749H109.204ZM131.674 24.7422V30.6074H130.697V24.7422H131.674ZM122.534 29.833C124.216 29.2744 125.422 27.8906 125.428 26.3418V26.2148H122.788V25.3896H129.034V26.2148H126.431V26.3418C126.438 27.8081 127.637 29.103 129.338 29.6045L128.843 30.3789C127.51 29.96 126.45 29.0649 125.949 27.9097C125.46 29.1729 124.381 30.1567 123.003 30.6201L122.534 29.833ZM124.349 31.9404V31.1533H131.687V33.8447H125.352V35.1016H132.093V35.9014H124.375V33.0957H130.697V31.9404H124.349ZM143.925 30.5186V31.3438H139.33V33.6543H138.339V31.3438H133.591V30.5186H143.925ZM134.912 35.7871V32.5371H135.915V34.9492H142.77V35.7871H134.912ZM134.937 29.2236V25.3008H142.58V29.2236H134.937ZM135.915 28.4238H141.589V26.0879H135.915V28.4238ZM149.981 24.9453C152.488 24.9453 153.961 25.6372 153.967 26.8877C153.961 28.1699 152.488 28.8618 149.981 28.8682C147.461 28.8618 145.982 28.1699 145.982 26.8877C145.982 25.6372 147.461 24.9453 149.981 24.9453ZM144.839 30.4424V29.6299H155.123V30.4424H144.839ZM146.083 32.1816V31.4199H153.802V33.9463H147.099V35.1143H154.145V35.9014H146.109V33.21H152.825V32.1816H146.083ZM147.023 26.8877C147.01 27.6748 148.108 28.1064 149.981 28.1064C151.854 28.1064 152.945 27.6748 152.952 26.8877C152.945 26.145 151.854 25.7007 149.981 25.6943C148.108 25.7007 147.01 26.145 147.023 26.8877ZM163.159 26.8369C163.165 28.3413 164.27 29.7124 165.939 30.29L165.431 31.0645C164.143 30.6074 163.159 29.687 162.676 28.519C162.194 29.8013 161.159 30.7979 159.833 31.2803L159.299 30.5059C160.988 29.9092 162.168 28.4556 162.181 26.8369V26.3545H159.604V25.542H165.698V26.3545H163.159V26.8369ZM160.772 32.9561V32.1436H168.161V36.0283H167.17V32.9561H160.772ZM167.17 31.5469V24.7422H168.161V27.7256H169.862V28.5762H168.161V31.5469H167.17ZM174.458 26.5195C174.445 28.1318 175.594 29.5474 177.25 30.1123L176.692 30.8867C175.448 30.4233 174.47 29.5029 173.981 28.3159C173.499 29.668 172.471 30.7153 171.106 31.2295L170.56 30.417C172.299 29.8076 173.455 28.3096 173.467 26.5576V25.3896H174.458V26.5195ZM172.401 33.8955C172.395 32.5371 173.835 31.7563 176.184 31.7627C178.526 31.7563 179.967 32.5371 179.967 33.8955C179.967 35.2412 178.526 36.0029 176.184 36.0029C173.835 36.0029 172.395 35.2412 172.401 33.8955ZM173.391 33.8955C173.385 34.7144 174.451 35.2095 176.184 35.2031C177.911 35.2095 178.977 34.7144 178.977 33.8955C178.977 33.0513 177.911 32.5498 176.184 32.5498C174.451 32.5498 173.385 33.0513 173.391 33.8955ZM176.413 27.9922V27.167H178.926V24.7422H179.929V31.4326H178.926V27.9922H176.413ZM187.445 26.6973V27.5098H181.783V26.6973H184.131V25.085H185.122V26.6973H187.445ZM182.189 30.8359C182.189 29.3379 183.211 28.2778 184.614 28.2715C186.036 28.2778 187.051 29.3379 187.064 30.8359C187.051 32.353 186.036 33.4194 184.614 33.4258C183.211 33.4194 182.189 32.353 182.189 30.8359ZM183.078 30.8359C183.078 31.8389 183.719 32.5562 184.614 32.5498C185.515 32.5562 186.175 31.8389 186.175 30.8359C186.175 29.8457 185.515 29.1221 184.614 29.1094C183.719 29.1221 183.078 29.8457 183.078 30.8359ZM188.029 35.4697V25.0215H188.968V29.5029H190.466V24.7422H191.418V36.0283H190.466V30.3281H188.968V35.4697H188.029ZM206.64 33.7559V34.5811H196.306V33.7559H200.953V31.3184H197.525V25.542H198.528V27.5859H204.393V25.542H205.371V31.3184H201.93V33.7559H206.64ZM198.528 30.5059H204.393V28.3984H198.528V30.5059ZM210.893 27.9541C210.893 29.7505 211.769 31.6865 213.267 32.5752L212.696 33.3496C211.604 32.6895 210.823 31.4834 210.43 30.106C210.017 31.6104 209.179 32.9053 208.049 33.5908L207.415 32.8418C208.976 31.9277 209.928 29.9282 209.928 27.9922V25.8086H210.893V27.9541ZM212.023 29.6426V28.792H213.94V24.9834H214.879V35.457H213.94V29.6426H212.023ZM216.25 36.0283V24.7422H217.215V36.0283H216.25ZM229.111 33.7432V34.5811H218.777V33.7432H221.341V30.7026C220.376 30.2012 219.792 29.3887 219.792 28.3604C219.792 26.6147 221.506 25.4658 223.918 25.4531C226.331 25.4658 228.044 26.6147 228.044 28.3604C228.044 29.3696 227.479 30.1694 226.546 30.6709V33.7432H229.111ZM220.757 28.3604C220.751 29.6235 222.065 30.4678 223.918 30.4678C225.753 30.4678 227.08 29.6235 227.08 28.3604C227.08 27.0972 225.753 26.2656 223.918 26.2783C222.065 26.2656 220.751 27.0972 220.757 28.3604ZM222.319 33.7432H225.543V31.0581C225.055 31.1851 224.509 31.2549 223.918 31.2549C223.341 31.2549 222.801 31.1914 222.319 31.0645V33.7432Z" fill="#4B4F52"/>
<path d="M261.934 58.0268C262.734 59.0355 264.266 59.0355 265.066 58.0268L275.215 45.2435C276.255 43.9328 275.322 42 273.648 42H253.352C251.678 42 250.745 43.9328 251.785 45.2435L261.934 58.0268Z" fill="white"/>
</g>
<defs>
<filter id="filter0_d_3976_27870" x="0" y="0" width="304" height="74" filterUnits="userSpaceOnUse" color-interpolation-filters="sRGB">
<feFlood flood-opacity="0" result="BackgroundImageFix"/>
<feColorMatrix in="SourceAlpha" type="matrix" values="0 0 0 0 0 0 0 0 0 0 0 0 0 0 0 0 0 0 127 0" result="hardAlpha"/>
<feOffset dx="2" dy="2"/>
<feGaussianBlur stdDeviation="6"/>
<feColorMatrix type="matrix" values="0 0 0 0 0 0 0 0 0 0 0 0 0 0 0 0 0 0 0.12 0"/>
<feBlend mode="normal" in2="BackgroundImageFix" result="effect1_dropShadow_3976_27870"/>
<feBlend mode="normal" in="SourceGraphic" in2="effect1_dropShadow_3976_27870" result="shape"/>
</filter>
</defs>
</svg>
