<svg width="416" height="102" viewBox="0 0 416 102" fill="none" xmlns="http://www.w3.org/2000/svg">
<g filter="url(#filter0_d_3976_96705)">
<rect x="10" y="10.7305" width="392" height="59" rx="12" fill="white"/>
<path d="M66.752 34.4658V35.3887C66.752 36.3701 66.752 37.5713 66.4224 39.124H68.3193V40.0615H62.8848V42.1123C65.375 42.2148 66.8618 43.0645 66.8691 44.4854C66.8618 46.0308 65.1479 46.8877 62.3281 46.8877C59.4717 46.8877 57.7651 46.0308 57.7578 44.4854C57.7651 43.0645 59.2446 42.2222 61.7568 42.1123V40.0615H56.3955V39.124H65.2651C65.6167 37.542 65.6167 36.3994 65.6094 35.4033H57.9043V34.4658H66.752ZM58.9297 44.4854C58.915 45.4229 60.1968 45.9575 62.3281 45.9648C64.4155 45.9575 65.6973 45.4229 65.7119 44.4854C65.6973 43.5625 64.4155 43.0352 62.3281 43.0205C60.1968 43.0352 58.915 43.5625 58.9297 44.4854ZM79.7158 34.5977V35.5645C79.7158 36.5752 79.7158 37.7617 79.3716 39.3877H81.2832V40.3398H69.3594V39.3877H78.2144C78.5806 37.7471 78.5806 36.5752 78.5732 35.5645V35.5498H70.8682V34.5977H79.7158ZM70.8242 46.7412V42.1416H79.7744V46.7412H70.8242ZM71.9668 45.8037H78.6318V43.0498H71.9668V45.8037ZM92.5039 33.9092V38.2012H94.4668V39.168H92.5039V43.665H91.3613V33.9092H92.5039ZM82.3525 36.4434V35.5059H85.6631V33.9092H86.8057V35.5059H90.1162V36.4434H82.3525ZM83.0996 39.5928C83.0923 38.1133 84.3521 37.1611 86.2344 37.1611C88.0947 37.1611 89.3545 38.1133 89.3691 39.5928C89.3545 41.0576 88.0947 42.0024 86.2344 41.9951C84.3521 42.0024 83.0923 41.0576 83.0996 39.5928ZM84.1982 39.5928C84.1909 40.5083 85.0039 41.1016 86.2344 41.0869C87.4502 41.1016 88.2705 40.5083 88.2852 39.5928C88.2705 38.6626 87.4502 38.062 86.2344 38.0693C85.0039 38.062 84.1909 38.6626 84.1982 39.5928ZM84.3594 46.6387V42.8887H85.4873V45.6719H93.1045V46.6387H84.3594ZM106.083 33.8945V41.5264H104.926V38.1279H102.289V37.1611H104.926V33.8945H106.083ZM95.3457 40.4863C97.2646 39.8052 98.6562 38.062 98.6562 36.209V35.6963H95.7119V34.7441H102.729V35.6963H99.8135V36.209C99.8135 37.8862 101.117 39.5122 103.021 40.1934L102.421 41.1016C100.956 40.5669 99.8208 39.4756 99.2568 38.1279C98.6929 39.6367 97.4917 40.8306 95.9463 41.3945L95.3457 40.4863ZM97.5723 46.7412V42.1709H106.083V46.7412H97.5723ZM98.7148 45.8037H104.955V43.0938H98.7148V45.8037ZM118.988 33.8945V46.9463H117.831V33.8945H118.988ZM108.734 39.4463C108.742 36.6777 110.119 34.9126 112.06 34.9053C113.993 34.9126 115.392 36.6777 115.385 39.4463C115.392 42.2222 113.993 43.98 112.06 43.9727C110.119 43.98 108.742 42.2222 108.734 39.4463ZM109.848 39.4463C109.848 41.563 110.756 42.9546 112.06 42.9473C113.371 42.9546 114.271 41.563 114.271 39.4463C114.271 37.3296 113.371 35.938 112.06 35.9307C110.756 35.938 109.848 37.3296 109.848 39.4463ZM129.389 42.6396C129.381 43.7896 130.004 45.0127 131.242 45.7158C132.487 44.9468 133.146 43.6431 133.139 42.6396V41.9219H134.267V42.6396C134.259 43.98 135.248 45.313 136.918 45.8916L136.347 46.7412C135.043 46.2798 134.135 45.3716 133.681 44.2803C133.278 45.335 132.479 46.3384 131.278 46.8438C130.011 46.3604 129.206 45.4082 128.817 44.3169C128.349 45.3643 127.455 46.2725 126.21 46.7412L125.624 45.8916C127.272 45.2764 128.261 43.8848 128.275 42.6396V41.9219H129.389V42.6396ZM125.287 37.7178C125.28 35.9014 126.723 34.6636 128.7 34.6709C130.678 34.6636 132.106 35.9014 132.113 37.7178C132.106 39.5049 130.678 40.7354 128.7 40.7354C126.723 40.7354 125.28 39.5049 125.287 37.7178ZM126.415 37.7178C126.4 38.9263 127.36 39.7759 128.7 39.7832C130.026 39.7759 130.985 38.9263 130.985 37.7178C130.985 36.502 130.026 35.6377 128.7 35.6523C127.36 35.6377 126.4 36.502 126.415 37.7178ZM134.589 41.3506V33.9092H135.731V41.3506H134.589ZM148.021 33.8945V39.0508H150.204V40.0176H148.021V46.9463H146.879V33.8945H148.021ZM138.515 43.6797V35.1689H144.594V36.1211H139.657V42.7129C142.016 42.7056 143.678 42.603 145.619 42.2441L145.766 43.2402C143.722 43.6064 142.016 43.6797 139.54 43.6797H138.515ZM157.499 35.0371V36.1943H160.546V33.9092H161.703V43.416H160.546V39.9443H157.499V41.1162H151.522V35.0371H157.499ZM152.665 40.1934H156.371V35.9893H152.665V40.1934ZM153.28 46.6387V42.5664H154.438V45.6719H161.996V46.6387H153.28ZM157.499 38.9922H160.546V37.1611H157.499V38.9922ZM179.516 40.3398V41.2627H167.636V40.3398H173.012V38.8164H169.145V34.5098H178.036V35.4326H170.272V37.8789H178.124V38.8164H174.125V40.3398H179.516ZM169.071 44.5586C169.064 43.0718 170.756 42.2222 173.568 42.2148C176.359 42.2222 178.036 43.0718 178.051 44.5586C178.036 46.0601 176.359 46.9023 173.568 46.917C170.756 46.9023 169.064 46.0601 169.071 44.5586ZM170.243 44.5586C170.229 45.4741 171.481 46.0015 173.568 45.9941C175.634 46.0015 176.886 45.4741 176.894 44.5586C176.886 43.6577 175.634 43.123 173.568 43.123C171.481 43.123 170.229 43.6577 170.243 44.5586ZM184.086 34.9053C186.005 34.9126 187.367 36.6777 187.382 39.4463C187.367 42.2222 186.005 43.98 184.086 43.9727C182.152 43.98 180.797 42.2222 180.805 39.4463C180.797 36.6777 182.152 34.9126 184.086 34.9053ZM181.889 39.4463C181.896 41.563 182.797 42.9546 184.086 42.9473C185.39 42.9546 186.269 41.563 186.269 39.4463C186.269 37.3296 185.39 35.938 184.086 35.9307C182.797 35.938 181.896 37.3296 181.889 39.4463ZM189.535 46.917V33.8945H190.678V39.0947H192.86V40.0908H190.678V46.917H189.535ZM204.315 33.8945V46.9463H203.173V33.8945H204.315ZM194.296 36.0625V35.1104H200.36V39.7393H195.497V42.8154C197.658 42.8228 199.584 42.7202 201.913 42.3467L202.03 43.3135C199.635 43.687 197.658 43.7822 195.409 43.7822H194.325V38.8018H199.203V36.0625H194.296ZM222.201 40.5156V41.4678H216.913V44.1338H215.756V41.4678H210.277V40.5156H222.201ZM211.625 36.8535C211.618 35.2349 213.441 34.2388 216.225 34.2314C219.008 34.2388 220.81 35.2349 220.81 36.8535C220.81 38.4575 219.008 39.4536 216.225 39.4463C213.441 39.4536 211.618 38.4575 211.625 36.8535ZM211.815 46.6387V42.8301H212.973V45.6572H220.868V46.6387H211.815ZM212.855 36.8535C212.841 37.8643 214.196 38.5088 216.225 38.5088C218.246 38.5088 219.594 37.8643 219.594 36.8535C219.594 35.8135 218.246 35.1763 216.225 35.1689C214.196 35.1763 212.841 35.8135 212.855 36.8535ZM226.845 34.6855C227.943 34.6782 228.874 35.0957 229.481 35.7842H232.895V33.8945H234.052V41.6143H232.895V39.7539H229.481C228.881 40.4424 227.943 40.8599 226.845 40.8525C224.896 40.8599 223.454 39.5854 223.461 37.7764C223.454 35.9526 224.896 34.6782 226.845 34.6855ZM224.56 37.7764C224.56 38.9849 225.512 39.8784 226.845 39.8711C228.134 39.8784 229.101 38.9849 229.101 37.7764C229.101 36.5386 228.134 35.6743 226.845 35.6816C225.512 35.6743 224.56 36.5386 224.56 37.7764ZM225.365 44.3975C225.358 42.8301 227.028 41.9219 229.73 41.9219C232.426 41.9219 234.096 42.8301 234.096 44.3975C234.096 45.9795 232.426 46.8877 229.73 46.8877C227.028 46.8877 225.358 45.9795 225.365 44.3975ZM226.493 44.3975C226.486 45.3789 227.731 45.9722 229.73 45.9648C231.73 45.9722 232.975 45.3789 232.968 44.3975C232.975 43.4087 231.73 42.8228 229.73 42.8154C227.731 42.8228 226.486 43.4087 226.493 44.3975ZM230.031 36.7217C230.148 37.0439 230.214 37.3955 230.214 37.7764C230.214 38.1426 230.148 38.4868 230.038 38.8018H232.895V36.7217H230.031ZM240.907 36.6924C240.915 38.4502 242.299 40.0322 244.247 40.6475L243.661 41.5703C242.145 41.0503 240.944 39.981 240.351 38.6113C239.787 40.0908 238.563 41.2627 237.011 41.834L236.41 40.9111C238.366 40.23 239.743 38.5381 239.75 36.6924V35.9307H236.703V34.9932H243.91V35.9307H240.907V36.6924ZM238.563 46.6387V42.5518H239.706V45.6719H247.382V46.6387H238.563ZM245.829 43.46V33.9092H246.972V43.46H245.829ZM260.346 33.8945V46.917H259.232V33.8945H260.346ZM249.345 39.5195C249.352 36.751 250.451 35.0005 252.143 34.9932C253.725 35.0005 254.794 36.5239 254.94 38.9775H256.625V34.1729H257.724V46.2578H256.625V39.9297H254.948C254.838 42.4639 253.747 44.0532 252.143 44.0459C250.451 44.0532 249.352 42.2881 249.345 39.5195ZM250.429 39.5195C250.414 41.6289 251.088 42.9619 252.143 42.9473C253.205 42.9619 253.878 41.6289 253.871 39.5195C253.878 37.4028 253.205 36.0771 252.143 36.0771C251.088 36.0771 250.414 37.4028 250.429 39.5195ZM273.295 33.8945V46.917H272.196V33.8945H273.295ZM262.162 43.2695C264.989 41.5923 266.41 39.2412 266.63 36.5166H262.719V35.5645H267.772C267.772 36.8462 267.567 38.084 267.121 39.2412H269.457V34.2461H270.556V46.2578H269.457V40.1787H266.696C265.912 41.6948 264.652 43.0352 262.836 44.1045L262.162 43.2695ZM289.613 33.8945V40.6621H288.485V33.8945H289.613ZM279.066 39.7686C281.007 39.124 282.399 37.5273 282.406 35.7402V35.5938H279.359V34.6416H286.566V35.5938H283.563V35.7402C283.571 37.4321 284.955 38.9263 286.918 39.5049L286.347 40.3984C284.809 39.915 283.585 38.8823 283.007 37.5493C282.443 39.0068 281.198 40.1421 279.608 40.6768L279.066 39.7686ZM281.161 42.2002V41.292H289.628V44.3975H282.318V45.8477H290.097V46.7705H281.19V43.5332H288.485V42.2002H281.161ZM303.749 40.5596V41.5117H298.446V44.1777H297.304V41.5117H291.825V40.5596H303.749ZM293.349 46.6387V42.8887H294.506V45.6719H302.416V46.6387H293.349ZM293.378 39.0654V34.5391H302.196V39.0654H293.378ZM294.506 38.1426H301.054V35.4473H294.506V38.1426ZM311.308 36.1504V37.0879H304.774V36.1504H307.484V34.29H308.627V36.1504H311.308ZM305.243 40.9258C305.243 39.1973 306.422 37.9741 308.041 37.9668C309.682 37.9741 310.854 39.1973 310.868 40.9258C310.854 42.6763 309.682 43.9067 308.041 43.9141C306.422 43.9067 305.243 42.6763 305.243 40.9258ZM306.269 40.9258C306.269 42.083 307.008 42.9106 308.041 42.9033C309.081 42.9106 309.843 42.083 309.843 40.9258C309.843 39.7832 309.081 38.9482 308.041 38.9336C307.008 38.9482 306.269 39.7832 306.269 40.9258ZM311.981 46.2725V34.2168H313.065V39.3877H314.794V33.8945H315.893V46.917H314.794V40.3398H313.065V46.2725H311.981ZM329.691 44.2949V45.2471H317.768V44.2949H323.129V41.4824H319.174V34.8174H320.331V37.1758H327.099V34.8174H328.227V41.4824H324.257V44.2949H329.691ZM320.331 40.5449H327.099V38.1133H320.331V40.5449ZM334.599 37.6006C334.599 39.6733 335.609 41.9072 337.338 42.9326L336.679 43.8262C335.419 43.0645 334.518 41.6729 334.064 40.0835C333.588 41.8193 332.621 43.3135 331.317 44.1045L330.585 43.2402C332.387 42.1855 333.485 39.8784 333.485 37.6445V35.125H334.599V37.6006ZM335.902 39.5488V38.5674H338.114V34.1729H339.198V46.2578H338.114V39.5488H335.902ZM340.78 46.917V33.8945H341.894V46.917H340.78ZM355.619 44.2803V45.2471H343.695V44.2803H346.654V40.772C345.541 40.1934 344.867 39.2559 344.867 38.0693C344.867 36.0552 346.845 34.7295 349.628 34.7148C352.411 34.7295 354.389 36.0552 354.389 38.0693C354.389 39.2339 353.737 40.1567 352.66 40.7354V44.2803H355.619ZM345.98 38.0693C345.973 39.5269 347.489 40.501 349.628 40.501C351.745 40.501 353.275 39.5269 353.275 38.0693C353.275 36.6118 351.745 35.6523 349.628 35.667C347.489 35.6523 345.973 36.6118 345.98 38.0693ZM347.782 44.2803H351.503V41.1821C350.939 41.3286 350.309 41.4092 349.628 41.4092C348.961 41.4092 348.339 41.3359 347.782 41.1895V44.2803Z" fill="#4B4F52"/>
<path d="M367.65 84.7707C368.851 86.2837 371.149 86.2837 372.35 84.7707L385.19 68.5957C386.751 66.6297 385.351 63.7305 382.841 63.7305H357.159C354.649 63.7305 353.249 66.6297 354.81 68.5957L367.65 84.7707Z" fill="white"/>
</g>
<defs>
<filter id="filter0_d_3976_96705" x="0" y="0.730469" width="416" height="101" filterUnits="userSpaceOnUse" color-interpolation-filters="sRGB">
<feFlood flood-opacity="0" result="BackgroundImageFix"/>
<feColorMatrix in="SourceAlpha" type="matrix" values="0 0 0 0 0 0 0 0 0 0 0 0 0 0 0 0 0 0 127 0" result="hardAlpha"/>
<feOffset dx="2" dy="2"/>
<feGaussianBlur stdDeviation="6"/>
<feColorMatrix type="matrix" values="0 0 0 0 0 0 0 0 0 0 0 0 0 0 0 0 0 0 0.12 0"/>
<feBlend mode="normal" in2="BackgroundImageFix" result="effect1_dropShadow_3976_96705"/>
<feBlend mode="normal" in="SourceGraphic" in2="effect1_dropShadow_3976_96705" result="shape"/>
</filter>
</defs>
</svg>
