<svg width="416" height="102" viewBox="0 0 416 102" fill="none" xmlns="http://www.w3.org/2000/svg">
<g filter="url(#filter0_d_3976_66586)">
<rect x="10" y="10.7305" width="392" height="59" rx="12" fill="white"/>
<path d="M38.3926 37.8936C38.3779 39.981 39.8867 42.2808 41.7764 43.1816L41.1172 44.0898C39.6523 43.3721 38.4146 41.834 37.8286 40.0688C37.228 41.9805 35.9243 43.665 34.4668 44.4121L33.7637 43.5039C35.6387 42.5884 37.25 40.1128 37.2646 37.8936V36.1943H34.2324V35.2422H41.3223V36.1943H38.3926V37.8936ZM42.9189 46.917V33.8945H44.0615V39.168H46.2441V40.1494H44.0615V46.917H42.9189ZM53.5244 35.7402C53.5171 37.4834 55.8389 38.9629 58.1094 39.2998L57.6846 40.208C55.6558 39.8638 53.6709 38.7798 52.8799 37.2124C52.0889 38.7798 50.104 39.8638 48.1045 40.208L47.6504 39.2998C49.9136 38.9629 52.228 37.4834 52.2354 35.7402V35.6523H48.0605V34.7148H57.6846V35.6523H53.5244V35.7402ZM46.9473 42.2734V41.3213H58.8125V42.2734H53.4219V46.917H52.2939V42.2734H46.9473ZM74.252 45.8184V46.7412H65.126V42.5225H69.0371V40.9697H63.6758V40.0176H75.541V40.9697H70.165V42.5225H74.1201V43.4746H66.2832V45.8184H74.252ZM65.2139 38.7432V34.4072H74.0322V38.7432H65.2139ZM66.3418 37.8203H72.8896V35.3447H66.3418V37.8203ZM87.1719 37.8496V38.7725H78.251V34.3779H79.3936V37.8496H87.1719ZM76.625 41.4824V40.5449H88.5488V41.4824H76.625ZM78.1777 46.5947V42.8154H79.3203V45.6426H87.2451V46.5947H78.1777ZM104.105 33.8945V40.6621H102.978V33.8945H104.105ZM93.5586 39.7686C95.4995 39.124 96.8911 37.5273 96.8984 35.7402V35.5938H93.8516V34.6416H101.059V35.5938H98.0557V35.7402C98.063 37.4321 99.4473 38.9263 101.41 39.5049L100.839 40.3984C99.3008 39.915 98.0776 38.8823 97.499 37.5493C96.9351 39.0068 95.6899 40.1421 94.1006 40.6768L93.5586 39.7686ZM95.6533 42.2002V41.292H104.12V44.3975H96.8105V45.8477H104.589V46.7705H95.6826V43.5332H102.978V42.2002H95.6533ZM118.241 40.5596V41.5117H112.938V44.1777H111.796V41.5117H106.317V40.5596H118.241ZM107.841 46.6387V42.8887H108.998V45.6719H116.908V46.6387H107.841ZM107.87 39.0654V34.5391H116.688V39.0654H107.87ZM108.998 38.1426H115.546V35.4473H108.998V38.1426ZM121.435 44.749L120.292 48.7334H119.208L120.014 44.749H121.435ZM138.075 35.0225V35.9453H127.514V35.0225H132.26V33.7041H133.402V35.0225H138.075ZM126.898 42.2295V41.292H132.26V40.2153C129.916 40.1421 128.598 39.4976 128.598 38.3477C128.598 37.1245 130.128 36.458 132.831 36.458C135.519 36.458 137.05 37.1245 137.05 38.3477C137.05 39.4976 135.731 40.1421 133.402 40.2153V41.292H138.764V42.2295H126.898ZM128.173 44.1924V43.2842H137.182V46.917H136.039V44.1924H128.173ZM129.784 38.3477C129.77 39.0361 130.875 39.4097 132.831 39.417C134.772 39.4097 135.871 39.0361 135.878 38.3477C135.871 37.6812 134.772 37.2856 132.831 37.293C130.875 37.2856 129.77 37.6812 129.784 38.3477ZM151.728 40.7646V41.7021H139.862V40.7646H151.728ZM141.181 36.9414C141.181 35.3081 142.968 34.3486 145.795 34.3633C148.593 34.3486 150.387 35.3081 150.395 36.9414C150.387 38.5601 148.593 39.5342 145.795 39.5342C142.968 39.5342 141.181 38.5601 141.181 36.9414ZM141.4 46.6387V42.8447H142.558V45.6719H150.409V46.6387H141.4ZM142.367 36.9414C142.36 37.9741 143.693 38.5967 145.795 38.5967C147.882 38.5967 149.215 37.9741 149.223 36.9414C149.215 35.9233 147.882 35.2861 145.795 35.2861C143.693 35.2861 142.36 35.9233 142.367 36.9414ZM167.328 33.8945V40.6621H166.2V33.8945H167.328ZM156.781 39.7686C158.722 39.124 160.114 37.5273 160.121 35.7402V35.5938H157.074V34.6416H164.281V35.5938H161.278V35.7402C161.286 37.4321 162.67 38.9263 164.633 39.5049L164.062 40.3984C162.523 39.915 161.3 38.8823 160.722 37.5493C160.158 39.0068 158.913 40.1421 157.323 40.6768L156.781 39.7686ZM158.876 42.2002V41.292H167.343V44.3975H160.033V45.8477H167.812V46.7705H158.905V43.5332H166.2V42.2002H158.876ZM181.464 40.5596V41.5117H176.161V44.1777H175.019V41.5117H169.54V40.5596H181.464ZM171.063 46.6387V42.8887H172.221V45.6719H180.131V46.6387H171.063ZM171.093 39.0654V34.5391H179.911V39.0654H171.093ZM172.221 38.1426H178.769V35.4473H172.221V38.1426ZM193.256 33.8945V46.9463H192.099V33.8945H193.256ZM183.002 39.4463C183.009 36.6777 184.386 34.9126 186.327 34.9053C188.261 34.9126 189.66 36.6777 189.652 39.4463C189.66 42.2222 188.261 43.98 186.327 43.9727C184.386 43.98 183.009 42.2222 183.002 39.4463ZM184.115 39.4463C184.115 41.563 185.023 42.9546 186.327 42.9473C187.638 42.9546 188.539 41.563 188.539 39.4463C188.539 37.3296 187.638 35.938 186.327 35.9307C185.023 35.938 184.115 37.3296 184.115 39.4463ZM210.409 33.8945V46.917H209.296V33.8945H210.409ZM199.408 39.5195C199.416 36.751 200.514 35.0005 202.206 34.9932C203.319 35.0005 204.176 35.7549 204.645 37.0586H206.718V34.1729H207.816V46.2578H206.718V41.9805H204.645C204.184 43.2915 203.319 44.0532 202.206 44.0459C200.514 44.0532 199.416 42.2881 199.408 39.5195ZM200.478 39.5195C200.47 41.6289 201.137 42.9619 202.206 42.9473C203.268 42.9619 203.949 41.6289 203.949 39.5195C203.949 37.4028 203.268 36.0771 202.206 36.0771C201.137 36.0771 200.47 37.4028 200.478 39.5195ZM204.887 38.0107C204.975 38.4722 205.019 38.9775 205.019 39.5195C205.019 40.0542 204.975 40.5596 204.894 41.0137H206.718V38.0107H204.887ZM216.562 36.0039C216.562 37.7764 217.909 39.4023 219.799 40.0469L219.169 40.9551C217.733 40.4277 216.598 39.3511 216.027 37.9888C215.47 39.5342 214.306 40.728 212.782 41.3213L212.167 40.3984C214.115 39.6733 215.426 37.9302 215.434 35.916V34.5684H216.562V36.0039ZM213.896 44.5146C213.903 43.0278 215.536 42.1562 218.217 42.1562C220.89 42.1562 222.509 43.0278 222.509 44.5146C222.509 46.0308 220.89 46.8877 218.217 46.8877C215.536 46.8877 213.903 46.0308 213.896 44.5146ZM215.053 44.5146C215.038 45.4375 216.254 45.9722 218.217 45.9795C220.187 45.9722 221.388 45.4375 221.396 44.5146C221.388 43.6284 220.187 43.0791 218.217 43.0791C216.254 43.0791 215.038 43.6284 215.053 44.5146ZM221.249 41.8193V33.8945H222.392V37.293H224.354V38.2598H222.392V41.8193H221.249ZM232.938 39.5195V40.4717H230.082V43.0352C231.356 42.9839 232.638 42.896 233.847 42.7568L233.935 43.6211C231.049 44.0386 227.899 44.0972 225.409 44.0898L225.248 43.123C226.383 43.123 227.643 43.1157 228.939 43.0791V40.4717H226.244V35.1396H232.88V36.0771H227.372V39.5195H232.938ZM234.711 46.9463V33.8945H235.854V46.9463H234.711ZM248.671 37.8496V38.7725H239.75V34.3779H240.893V37.8496H248.671ZM238.124 41.4824V40.5449H250.048V41.4824H238.124ZM239.677 46.5947V42.8154H240.819V45.6426H248.744V46.5947H239.677ZM265.985 33.8945V46.917H264.857V40.1787H262.982V46.2432H261.898V34.1875H262.982V39.1973H264.857V33.8945H265.985ZM255.526 43.5479V35.4912H256.669V42.5225C257.958 42.5151 259.35 42.4199 260.932 42.0977L261.078 43.123C259.262 43.4526 257.768 43.5479 256.332 43.5479H255.526ZM279.696 40.3398V41.292H267.831V40.3398H270.775V38.5015C269.735 38.0986 269.149 37.4395 269.149 36.5605C269.149 35.0298 270.907 34.1509 273.764 34.1436C276.598 34.1509 278.356 35.0298 278.363 36.5605C278.356 37.4321 277.777 38.0913 276.752 38.5015V40.3398H279.696ZM269.267 44.5879C269.259 43.1011 270.937 42.2808 273.764 42.2881C276.554 42.2808 278.231 43.1011 278.246 44.5879C278.231 46.0747 276.554 46.8877 273.764 46.8877C270.937 46.8877 269.259 46.0747 269.267 44.5879ZM270.336 36.5605C270.329 37.5127 271.632 38.062 273.764 38.0693C275.873 38.062 277.184 37.5127 277.191 36.5605C277.184 35.623 275.873 35.0518 273.764 35.0518C271.632 35.0518 270.329 35.623 270.336 36.5605ZM270.438 44.5879C270.424 45.4741 271.676 46.0015 273.764 45.9941C275.829 46.0015 277.082 45.4741 277.089 44.5879C277.082 43.7017 275.829 43.1816 273.764 43.167C271.676 43.1816 270.424 43.7017 270.438 44.5879ZM271.918 40.3398H275.609V38.8091C275.06 38.9116 274.445 38.9629 273.764 38.9629C273.083 38.9629 272.467 38.9116 271.918 38.8164V40.3398ZM286.728 34.1289C289.621 34.1289 291.32 34.9272 291.327 36.3701C291.32 37.8496 289.621 38.6479 286.728 38.6553C283.82 38.6479 282.113 37.8496 282.113 36.3701C282.113 34.9272 283.82 34.1289 286.728 34.1289ZM280.795 40.4717V39.5342H292.66V40.4717H280.795ZM282.23 42.4785V41.5996H291.137V44.5146H283.402V45.8623H291.532V46.7705H282.26V43.665H290.009V42.4785H282.23ZM283.314 36.3701C283.3 37.2783 284.567 37.7764 286.728 37.7764C288.888 37.7764 290.148 37.2783 290.155 36.3701C290.148 35.5132 288.888 35.0005 286.728 34.9932C284.567 35.0005 283.3 35.5132 283.314 36.3701ZM301.933 36.3115C301.94 38.0474 303.214 39.6294 305.141 40.2959L304.555 41.1895C303.068 40.6621 301.933 39.6001 301.376 38.2524C300.819 39.7319 299.625 40.8818 298.095 41.4385L297.479 40.5449C299.428 39.8564 300.79 38.1792 300.805 36.3115V35.7549H297.831V34.8174H304.862V35.7549H301.933V36.3115ZM299.179 43.3721V42.4346H307.704V46.917H306.562V43.3721H299.179ZM306.562 41.7461V33.8945H307.704V37.3369H309.667V38.3184H307.704V41.7461H306.562ZM314.97 35.9453C314.955 37.8057 316.281 39.439 318.192 40.0908L317.548 40.9844C316.112 40.4497 314.984 39.3877 314.42 38.0181C313.864 39.5781 312.677 40.7866 311.103 41.3799L310.473 40.4424C312.479 39.7393 313.812 38.0107 313.827 35.9893V34.6416H314.97V35.9453ZM312.597 44.4561C312.589 42.8887 314.252 41.9878 316.962 41.9951C319.665 41.9878 321.327 42.8887 321.327 44.4561C321.327 46.0088 319.665 46.8877 316.962 46.8877C314.252 46.8877 312.589 46.0088 312.597 44.4561ZM313.739 44.4561C313.732 45.4009 314.962 45.9722 316.962 45.9648C318.954 45.9722 320.185 45.4009 320.185 44.4561C320.185 43.4819 318.954 42.9033 316.962 42.9033C314.962 42.9033 313.732 43.4819 313.739 44.4561ZM317.226 37.6445V36.6924H320.126V33.8945H321.283V41.6143H320.126V37.6445H317.226ZM329.955 36.1504V37.0879H323.422V36.1504H326.132V34.29H327.274V36.1504H329.955ZM323.891 40.9258C323.891 39.1973 325.07 37.9741 326.688 37.9668C328.329 37.9741 329.501 39.1973 329.516 40.9258C329.501 42.6763 328.329 43.9067 326.688 43.9141C325.07 43.9067 323.891 42.6763 323.891 40.9258ZM324.916 40.9258C324.916 42.083 325.656 42.9106 326.688 42.9033C327.729 42.9106 328.49 42.083 328.49 40.9258C328.49 39.7832 327.729 38.9482 326.688 38.9336C325.656 38.9482 324.916 39.7832 324.916 40.9258ZM330.629 46.2725V34.2168H331.713V39.3877H333.441V33.8945H334.54V46.917H333.441V40.3398H331.713V46.2725H330.629ZM346.757 35.7402C346.75 37.4834 349.071 38.9629 351.342 39.2998L350.917 40.208C348.888 39.8638 346.903 38.7798 346.112 37.2124C345.321 38.7798 343.336 39.8638 341.337 40.208L340.883 39.2998C343.146 38.9629 345.46 37.4834 345.468 35.7402V35.6523H341.293V34.7148H350.917V35.6523H346.757V35.7402ZM340.18 42.2734V41.3213H352.045V42.2734H346.654V46.917H345.526V42.2734H340.18ZM357.011 37.6006C357.011 39.6733 358.021 41.9072 359.75 42.9326L359.091 43.8262C357.831 43.0645 356.93 41.6729 356.476 40.0835C356 41.8193 355.033 43.3135 353.729 44.1045L352.997 43.2402C354.799 42.1855 355.897 39.8784 355.897 37.6445V35.125H357.011V37.6006ZM358.314 39.5488V38.5674H360.526V34.1729H361.61V46.2578H360.526V39.5488H358.314ZM363.192 46.917V33.8945H364.306V46.917H363.192ZM378.031 44.2803V45.2471H366.107V44.2803H369.066V40.772C367.953 40.1934 367.279 39.2559 367.279 38.0693C367.279 36.0552 369.257 34.7295 372.04 34.7148C374.823 34.7295 376.801 36.0552 376.801 38.0693C376.801 39.2339 376.149 40.1567 375.072 40.7354V44.2803H378.031ZM368.393 38.0693C368.385 39.5269 369.901 40.501 372.04 40.501C374.157 40.501 375.688 39.5269 375.688 38.0693C375.688 36.6118 374.157 35.6523 372.04 35.667C369.901 35.6523 368.385 36.6118 368.393 38.0693ZM370.194 44.2803H373.915V41.1821C373.351 41.3286 372.721 41.4092 372.04 41.4092C371.374 41.4092 370.751 41.3359 370.194 41.1895V44.2803Z" fill="#4B4F52"/>
<path d="M367.65 84.7707C368.851 86.2837 371.149 86.2837 372.35 84.7707L385.19 68.5957C386.751 66.6297 385.351 63.7305 382.841 63.7305H357.159C354.649 63.7305 353.249 66.6297 354.81 68.5957L367.65 84.7707Z" fill="white"/>
</g>
<defs>
<filter id="filter0_d_3976_66586" x="0" y="0.730469" width="416" height="101" filterUnits="userSpaceOnUse" color-interpolation-filters="sRGB">
<feFlood flood-opacity="0" result="BackgroundImageFix"/>
<feColorMatrix in="SourceAlpha" type="matrix" values="0 0 0 0 0 0 0 0 0 0 0 0 0 0 0 0 0 0 127 0" result="hardAlpha"/>
<feOffset dx="2" dy="2"/>
<feGaussianBlur stdDeviation="6"/>
<feColorMatrix type="matrix" values="0 0 0 0 0 0 0 0 0 0 0 0 0 0 0 0 0 0 0.12 0"/>
<feBlend mode="normal" in2="BackgroundImageFix" result="effect1_dropShadow_3976_66586"/>
<feBlend mode="normal" in="SourceGraphic" in2="effect1_dropShadow_3976_66586" result="shape"/>
</filter>
</defs>
</svg>
