<svg width="24" height="24" viewBox="0 0 24 24" fill="none" xmlns="http://www.w3.org/2000/svg">
<path d="M18.125 13.7531V10.7531H15.125V9.25306H18.125V6.25306H19.625V9.25306H22.625V10.7531H19.625V13.7531H18.125ZM9 11.6953C8.0375 11.6953 7.21358 11.3526 6.52825 10.6673C5.84275 9.98181 5.5 9.15781 5.5 8.19531C5.5 7.23281 5.84275 6.4089 6.52825 5.72356C7.21358 5.03806 8.0375 4.69531 9 4.69531C9.9625 4.69531 10.7864 5.03806 11.4718 5.72356C12.1573 6.4089 12.5 7.23281 12.5 8.19531C12.5 9.15781 12.1573 9.98181 11.4718 10.6673C10.7864 11.3526 9.9625 11.6953 9 11.6953ZM1.5 19.3108V17.0876C1.5 16.5979 1.633 16.1444 1.899 15.7271C2.165 15.3097 2.5205 14.9889 2.9655 14.7646C3.95383 14.2801 4.95092 13.9166 5.95675 13.6743C6.96258 13.432 7.977 13.3108 9 13.3108C10.023 13.3108 11.0374 13.432 12.0433 13.6743C13.0491 13.9166 14.0462 14.2801 15.0345 14.7646C15.4795 14.9889 15.835 15.3097 16.101 15.7271C16.367 16.1444 16.5 16.5979 16.5 17.0876V19.3108H1.5ZM3 17.8108H15V17.0876C15 16.8851 14.9413 16.6976 14.824 16.5251C14.7067 16.3527 14.5474 16.2121 14.3462 16.1031C13.4846 15.6787 12.6061 15.3572 11.7107 15.1386C10.8153 14.9201 9.91167 14.8108 9 14.8108C8.08833 14.8108 7.18475 14.9201 6.28925 15.1386C5.39392 15.3572 4.51542 15.6787 3.65375 16.1031C3.45258 16.2121 3.29333 16.3527 3.176 16.5251C3.05867 16.6976 3 16.8851 3 17.0876V17.8108ZM9 10.1953C9.55 10.1953 10.0208 9.99948 10.4125 9.60781C10.8042 9.21615 11 8.74531 11 8.19531C11 7.64531 10.8042 7.17448 10.4125 6.78281C10.0208 6.39115 9.55 6.19531 9 6.19531C8.45 6.19531 7.97917 6.39115 7.5875 6.78281C7.19583 7.17448 7 7.64531 7 8.19531C7 8.74531 7.19583 9.21615 7.5875 9.60781C7.97917 9.99948 8.45 10.1953 9 10.1953Z" fill="#777F90"/>
</svg>
