<svg width="21" height="21" viewBox="0 0 21 21" fill="none" xmlns="http://www.w3.org/2000/svg">
<path d="M15.1747 17.2084L6.92162 17.1907L6.94302 7.19072L12.4835 1.7059L13.187 2.41241C13.2735 2.49912 13.3451 2.61386 13.4019 2.75662C13.4588 2.89938 13.4871 3.03381 13.4869 3.15992L13.4864 3.37138L12.5934 7.20281L17.664 7.21366C18.0604 7.21451 18.4102 7.36728 18.7135 7.67195C19.0169 7.97649 19.1681 8.32695 19.1673 8.72334L19.1644 10.0694C19.1642 10.1559 19.1549 10.2494 19.1365 10.3497C19.1181 10.4501 19.0907 10.5436 19.0542 10.6302L16.6543 16.2596C16.5341 16.5265 16.3333 16.7515 16.052 16.9346C15.7706 17.1178 15.4782 17.209 15.1747 17.2084ZM5.69302 7.18805L5.67162 17.188L2.48247 17.1812L2.50386 7.18122L5.69302 7.18805Z" fill="#589BFF"/>
</svg>
