<svg width="21" height="21" viewBox="0 0 21 21" fill="none" xmlns="http://www.w3.org/2000/svg">
<path d="M15.1747 17.2084L6.40871 17.1896L6.4301 7.18963L11.9708 1.7048L12.6743 2.41131C12.7606 2.49802 12.8323 2.61276 12.8892 2.75552C12.946 2.89828 12.9742 3.03272 12.974 3.15883L12.9735 3.37029L12.0807 7.20172L17.664 7.21366C18.0604 7.21451 18.4102 7.36728 18.7135 7.67195C19.0169 7.97649 19.1681 8.32695 19.1673 8.72334L19.1644 10.0694C19.1642 10.1559 19.1528 10.2494 19.13 10.3497C19.1075 10.4501 19.0822 10.5436 19.0542 10.6302L16.6543 16.2596C16.5341 16.5265 16.3333 16.7515 16.052 16.9346C15.7706 17.1178 15.4782 17.209 15.1747 17.2084ZM7.66138 15.9423L15.1774 15.9584C15.2362 15.9585 15.2963 15.9426 15.3577 15.9106C15.4193 15.8787 15.4662 15.8254 15.4985 15.7507L17.9143 10.1309L17.9173 8.72067C17.9174 8.64581 17.8935 8.5843 17.8456 8.53614C17.7976 8.48798 17.7362 8.46382 17.6614 8.46366L10.498 8.44833L11.5526 3.88329L7.67896 7.72438L7.66138 15.9423ZM6.4301 7.18963L6.42743 8.43962L3.75119 8.4339L3.73514 15.9339L6.41138 15.9396L6.40871 17.1896L2.48247 17.1812L2.50386 7.18122L6.4301 7.18963Z" fill="#777F90"/>
</svg>
