<svg width="16" height="16" viewBox="0 0 16 16" fill="none" xmlns="http://www.w3.org/2000/svg">
<path d="M4.20517 14.3334C3.87372 14.3334 3.59 14.2154 3.354 13.9794C3.118 13.7434 3 13.4597 3 13.1282V6.87187C3 6.54043 3.118 6.25671 3.354 6.02071C3.59 5.78471 3.87372 5.66671 4.20517 5.66671H5V4.33337C5 3.50093 5.29189 2.79282 5.87567 2.20904C6.45944 1.62526 7.16756 1.33337 8 1.33337C8.83244 1.33337 9.54056 1.62526 10.1243 2.20904C10.7081 2.79282 11 3.50093 11 4.33337V5.66671H11.7948C12.1263 5.66671 12.41 5.78471 12.646 6.02071C12.882 6.25671 13 6.54043 13 6.87187V13.1282C13 13.4597 12.882 13.7434 12.646 13.9794C12.41 14.2154 12.1263 14.3334 11.7948 14.3334H4.20517ZM8 11.1667C8.32389 11.1667 8.59933 11.0533 8.82633 10.8264C9.05322 10.5994 9.16667 10.3239 9.16667 10C9.16667 9.67615 9.05322 9.40071 8.82633 9.17371C8.59933 8.94682 8.32389 8.83337 8 8.83337C7.67611 8.83337 7.40067 8.94682 7.17367 9.17371C6.94678 9.40071 6.83333 9.67615 6.83333 10C6.83333 10.3239 6.94678 10.5994 7.17367 10.8264C7.40067 11.0533 7.67611 11.1667 8 11.1667ZM6 5.66671H10V4.33337C10 3.77782 9.80556 3.3056 9.41667 2.91671C9.02778 2.52782 8.55556 2.33337 8 2.33337C7.44444 2.33337 6.97222 2.52782 6.58333 2.91671C6.19444 3.3056 6 3.77782 6 4.33337V5.66671Z" fill="#777F90"/>
</svg>
