<svg width="304" height="74" viewBox="0 0 304 74" fill="none" xmlns="http://www.w3.org/2000/svg">
<g filter="url(#filter0_d_3228_298754)">
<rect x="10" y="10" width="280" height="40" rx="12" fill="white"/>
<path d="M36.0342 24.7422V27.6367H37.7354V28.4873H36.0342V31.3057H35.0439V24.7422H36.0342ZM27.2363 26.7354V25.9102H30.1055V24.6406H31.0957V25.9102H33.9648V26.7354H27.2363ZM27.8838 29.2363C27.8774 28.0303 28.9629 27.2622 30.6006 27.2559C32.2192 27.2622 33.3047 28.0303 33.3174 29.2363C33.3047 30.4424 32.2192 31.2231 30.6006 31.2168C28.9629 31.2231 27.8774 30.4424 27.8838 29.2363ZM28.8359 29.2363C28.8296 29.9727 29.5342 30.4551 30.6006 30.4551C31.6543 30.4551 32.3652 29.9727 32.3779 29.2363C32.3652 28.5063 31.6543 28.0176 30.6006 28.0303C29.5342 28.0176 28.8296 28.5063 28.8359 29.2363ZM28.8994 35.876V31.8008H29.8896V33.0068H35.0439V31.8008H36.0342V35.876H28.8994ZM29.8896 35.0762H35.0439V33.7939H29.8896V35.0762ZM44.4004 25.5166C44.4004 25.9546 44.3496 26.3735 44.2607 26.7734H46.7998V24.7549H47.8027V31.4834H46.7998V29.9854H43.8037V29.1602H46.7998V27.5986H43.9878C43.2261 29.376 41.4551 30.6646 39.0176 31.3311L38.624 30.5312C41.3789 29.7695 43.1245 28.2588 43.3276 26.3291H39.1953V25.5166H44.4004ZM40.2109 32.7783V31.9785H47.8027V36.0156H46.7998V32.7783H40.2109ZM59.3682 26.0371V26.8623H50.2148V26.0371H54.3281V24.6787H55.3057V26.0371H59.3682ZM49.6816 32.8799V32.0547H60.0156V32.8799H55.3057V36.0537H54.3281V32.8799H49.6816ZM51.1416 29.4014C51.1289 28.1826 52.5127 27.5098 54.8232 27.5098C57.1147 27.5098 58.4985 28.1826 58.5049 29.4014C58.4985 30.5947 57.1147 31.2676 54.8232 31.2803C52.5127 31.2676 51.1289 30.5947 51.1416 29.4014ZM52.1699 29.4014C52.1572 30.0996 53.1411 30.5122 54.8232 30.5059C56.4863 30.5122 57.4639 30.0996 57.4766 29.4014C57.4639 28.6904 56.4863 28.2778 54.8232 28.2715C53.1411 28.2778 52.1572 28.6904 52.1699 29.4014ZM70.248 24.7422V36.0283H69.2451V24.7422H70.248ZM61.0566 33.0957C64.1099 31.6484 65.6714 29.4839 65.8936 26.7861H61.5771V25.9736H66.9092C66.8965 29.2173 65.3857 32.0928 61.6025 33.9082L61.0566 33.0957ZM79.2363 26.8369C79.2427 28.3413 80.3472 29.7124 82.0166 30.29L81.5088 31.0645C80.2202 30.6074 79.2363 29.687 78.7539 28.519C78.2715 29.8013 77.2368 30.7979 75.9102 31.2803L75.377 30.5059C77.0654 29.9092 78.2461 28.4556 78.2588 26.8369V26.3545H75.6816V25.542H81.7754V26.3545H79.2363V26.8369ZM76.8496 32.9561V32.1436H84.2383V36.0283H83.248V32.9561H76.8496ZM83.248 31.5469V24.7422H84.2383V27.7256H85.9395V28.5762H84.2383V31.5469H83.248ZM90.5352 26.5195C90.5225 28.1318 91.6714 29.5474 93.3281 30.1123L92.7695 30.8867C91.5254 30.4233 90.5479 29.5029 90.0591 28.3159C89.5767 29.668 88.5483 30.7153 87.1836 31.2295L86.6377 30.417C88.377 29.8076 89.5322 28.3096 89.5449 26.5576V25.3896H90.5352V26.5195ZM88.4785 33.8955C88.4722 32.5371 89.9131 31.7563 92.2617 31.7627C94.604 31.7563 96.0449 32.5371 96.0449 33.8955C96.0449 35.2412 94.604 36.0029 92.2617 36.0029C89.9131 36.0029 88.4722 35.2412 88.4785 33.8955ZM89.4688 33.8955C89.4624 34.7144 90.5288 35.2095 92.2617 35.2031C93.9883 35.2095 95.0547 34.7144 95.0547 33.8955C95.0547 33.0513 93.9883 32.5498 92.2617 32.5498C90.5288 32.5498 89.4624 33.0513 89.4688 33.8955ZM92.4902 27.9922V27.167H95.0039V24.7422H96.0068V31.4326H95.0039V27.9922H92.4902ZM105.16 27.7764C105.154 29.8394 106.557 31.9087 108.22 32.6641L107.61 33.4512C106.322 32.8291 105.211 31.4897 104.671 29.8838C104.151 31.585 103.04 33.0132 101.72 33.6797L101.085 32.8418C102.767 32.0737 104.157 29.9155 104.17 27.7764V25.7197H105.16V27.7764ZM109.451 36.0537V24.7422H110.454V36.0537H109.451ZM119.303 25.8086V35H118.147V27.002H118.097L115.862 28.4873V27.332L118.147 25.8086H119.303ZM124.762 35.127C122.724 35.127 121.543 33.4131 121.55 30.4043C121.543 27.4209 122.737 25.6816 124.762 25.6816C126.78 25.6816 127.974 27.4209 127.974 30.4043C127.974 33.4131 126.799 35.127 124.762 35.127ZM122.654 30.4043C122.661 32.7847 123.429 34.1113 124.762 34.1113C126.088 34.1113 126.863 32.7847 126.856 30.4043C126.863 28.0239 126.082 26.6782 124.762 26.6719C123.441 26.6782 122.661 28.0239 122.654 30.4043ZM139.425 33.7812V34.6318H129.091V33.7812H133.725V31.1787H130.03V30.3789H131.795V26.6719H130.005V25.8467H138.435V26.6719H136.645V30.3789H138.409V31.1787H134.702V33.7812H139.425ZM132.785 30.3789H135.667V26.6719H132.785V30.3789ZM149.645 24.7549V33.0068H148.654V24.7549H149.645ZM140.593 28.3096C140.586 26.6846 141.862 25.5483 143.551 25.542C145.239 25.5483 146.502 26.6846 146.509 28.3096C146.502 29.9536 145.239 31.0962 143.551 31.0898C141.862 31.0962 140.586 29.9536 140.593 28.3096ZM141.57 28.3096C141.558 29.4331 142.408 30.2139 143.551 30.2139C144.674 30.2139 145.531 29.4331 145.531 28.3096C145.531 27.2051 144.674 26.418 143.551 26.418C142.408 26.418 141.558 27.2051 141.57 28.3096ZM142.357 35.7871V32.1689H143.348V34.9492H150V35.7871H142.357ZM160.702 30.8486V31.6611H152.895V25.7197H160.575V26.5576H153.91V28.2334H160.334V29.0332H153.91V30.8486H160.702ZM151.562 34.5557V33.7305H161.896V34.5557H151.562ZM173.118 29.9854V30.7725H162.784V29.9854H173.118ZM164.028 32.4229V31.6738H171.823V34.0732H165.044V35.1523H172.191V35.876H164.041V33.3877H170.833V32.4229H164.028ZM164.092 25.8086V25.085H171.785V27.4209H165.12V28.4111H171.988V29.1348H164.13V26.7354H170.782V25.8086H164.092ZM184.392 25.7832V26.5449H177.727V25.7832H180.558V24.6787H181.548V25.7832H184.392ZM177.346 31.1406C178.304 31.1406 179.409 31.1343 180.558 31.0962V30.3091C179.218 30.1885 178.361 29.5854 178.374 28.665C178.361 27.6177 179.434 26.9766 181.065 26.9766C182.671 26.9766 183.757 27.6177 183.77 28.665C183.757 29.5854 182.887 30.1948 181.548 30.3091V31.0581C182.602 31.0073 183.668 30.9248 184.658 30.7852L184.734 31.4961C182.259 31.9023 179.529 31.9404 177.498 31.9404L177.346 31.1406ZM178.983 33.6289V32.8291H186.601V36.0283H185.598V33.6289H178.983ZM179.313 28.665C179.313 29.2427 180.005 29.6299 181.065 29.6172C182.106 29.6299 182.811 29.2427 182.805 28.665C182.811 28.0493 182.106 27.6748 181.065 27.6875C180.005 27.6748 179.313 28.0493 179.313 28.665ZM185.598 32.2959V24.7803H186.601V32.2959H185.598ZM198.826 30.2393V31.0645H188.53V30.2393H198.826ZM189.673 33.2354V32.4229H197.557V36.0918H196.566V33.2354H189.673ZM189.838 28.9824V25.1865H197.544V25.999H190.828V28.1699H197.646V28.9824H189.838ZM208.5 24.7422V29.4014H210.392V30.2266H208.5V36.0283H207.51V24.7422H208.5ZM199.702 27.3828V26.5576H202.609V24.8818H203.6V26.5576H206.418V27.3828H199.702ZM200.35 30.9121C200.343 29.3887 201.511 28.3223 203.117 28.3223C204.71 28.3223 205.872 29.3887 205.885 30.9121C205.872 32.4419 204.71 33.502 203.117 33.502C201.511 33.502 200.343 32.4419 200.35 30.9121ZM201.302 30.9121C201.295 31.9404 202.063 32.6641 203.117 32.6514C204.158 32.6641 204.92 31.9404 204.933 30.9121C204.92 29.8901 204.158 29.1538 203.117 29.1602C202.063 29.1538 201.295 29.8901 201.302 30.9121ZM220.307 24.7422V30.5947H219.329V24.7422H220.307ZM211.077 29.6934C212.778 29.103 213.984 27.5923 213.984 25.9355V25.0723H215V25.9355C214.987 27.5288 216.206 28.938 217.882 29.4902L217.387 30.2646C216.06 29.814 215.013 28.8682 214.505 27.6494C213.997 28.9634 212.937 29.998 211.598 30.4805L211.077 29.6934ZM212.981 31.9658V31.166H220.319V33.8701H213.984V35.0889H220.726V35.9014H213.007V33.0957H219.329V31.9658H212.981ZM231.161 25.7959C231.167 27.3892 233.237 28.7603 235.274 29.0459L234.868 29.8584C233.116 29.5664 231.377 28.5952 230.653 27.2114C229.93 28.6079 228.197 29.5664 226.438 29.8584L226.032 29.0459C228.07 28.7603 230.133 27.4146 230.133 25.7959V25.1484H231.161V25.7959ZM225.499 31.9404V31.1025H235.782V31.9404H231.11V36.0283H230.133V31.9404H225.499ZM243.818 32.3213C243.812 33.3179 244.352 34.3779 245.424 34.9873C246.503 34.3208 247.075 33.1909 247.068 32.3213V31.6992H248.046V32.3213C248.04 33.4829 248.896 34.6382 250.344 35.1396L249.849 35.876C248.719 35.4761 247.932 34.689 247.538 33.7432C247.189 34.6572 246.497 35.5269 245.456 35.9648C244.358 35.5459 243.66 34.7207 243.323 33.7749C242.917 34.6826 242.143 35.4697 241.063 35.876L240.556 35.1396C241.984 34.6064 242.841 33.4004 242.854 32.3213V31.6992H243.818V32.3213ZM240.264 28.0557C240.257 26.4814 241.508 25.4087 243.222 25.415C244.936 25.4087 246.173 26.4814 246.18 28.0557C246.173 29.6045 244.936 30.6709 243.222 30.6709C241.508 30.6709 240.257 29.6045 240.264 28.0557ZM241.241 28.0557C241.229 29.103 242.06 29.8394 243.222 29.8457C244.371 29.8394 245.202 29.103 245.202 28.0557C245.202 27.002 244.371 26.2529 243.222 26.2656C242.06 26.2529 241.229 27.002 241.241 28.0557ZM248.325 31.2041V24.7549H249.315V31.2041H248.325ZM254.267 25.6182C255.803 25.6245 256.914 26.9448 257.066 29.0586H259.599V24.7422H260.589V36.0537H259.599V29.8838H257.079C256.971 32.0991 255.841 33.4829 254.267 33.4766C252.597 33.4829 251.429 31.9595 251.436 29.5537C251.429 27.1543 252.597 25.6245 254.267 25.6182ZM252.388 29.5537C252.394 31.3882 253.156 32.5942 254.267 32.5879C255.371 32.5942 256.146 31.3882 256.146 29.5537C256.146 27.7192 255.371 26.5132 254.267 26.5068C253.156 26.5132 252.394 27.7192 252.388 29.5537ZM272.802 33.7432V34.5811H262.468V33.7432H265.032V30.7026C264.067 30.2012 263.483 29.3887 263.483 28.3604C263.483 26.6147 265.197 25.4658 267.609 25.4531C270.021 25.4658 271.735 26.6147 271.735 28.3604C271.735 29.3696 271.17 30.1694 270.237 30.6709V33.7432H272.802ZM264.448 28.3604C264.442 29.6235 265.756 30.4678 267.609 30.4678C269.444 30.4678 270.771 29.6235 270.771 28.3604C270.771 27.0972 269.444 26.2656 267.609 26.2783C265.756 26.2656 264.442 27.0972 264.448 28.3604ZM266.01 33.7432H269.234V31.0581C268.746 31.1851 268.2 31.2549 267.609 31.2549C267.032 31.2549 266.492 31.1914 266.01 31.0645V33.7432Z" fill="#4B4F52"/>
<path d="M261.934 58.0268C262.734 59.0355 264.266 59.0355 265.066 58.0268L275.215 45.2435C276.255 43.9328 275.322 42 273.648 42H253.352C251.678 42 250.745 43.9328 251.785 45.2435L261.934 58.0268Z" fill="white"/>
</g>
<defs>
<filter id="filter0_d_3228_298754" x="0" y="0" width="304" height="74" filterUnits="userSpaceOnUse" color-interpolation-filters="sRGB">
<feFlood flood-opacity="0" result="BackgroundImageFix"/>
<feColorMatrix in="SourceAlpha" type="matrix" values="0 0 0 0 0 0 0 0 0 0 0 0 0 0 0 0 0 0 127 0" result="hardAlpha"/>
<feOffset dx="2" dy="2"/>
<feGaussianBlur stdDeviation="6"/>
<feColorMatrix type="matrix" values="0 0 0 0 0 0 0 0 0 0 0 0 0 0 0 0 0 0 0.12 0"/>
<feBlend mode="normal" in2="BackgroundImageFix" result="effect1_dropShadow_3228_298754"/>
<feBlend mode="normal" in="SourceGraphic" in2="effect1_dropShadow_3228_298754" result="shape"/>
</filter>
</defs>
</svg>
