<svg width="32" height="32" viewBox="0 0 32 32" fill="none" xmlns="http://www.w3.org/2000/svg">
<g clip-path="url(#clip0_4126_10733)">
<path d="M9.49 26.9983L5.49554 18.0839L8.90513 16.5561L12.8996 25.4705C13.3194 26.4075 12.8957 27.5194 11.9587 27.9392C11.0217 28.3591 9.90986 27.9353 9.49 26.9983Z" fill="#4E82EA"/>
<path d="M11.9115 20.4007L21.7963 21.4822L17.7191 6.48253L9.73819 12.4055L11.9115 20.4007Z" fill="#7DA2FF"/>
<path d="M17.6317 6.10745L21.9034 21.8227C22.0749 22.4535 22.7252 22.8258 23.356 22.6544L23.3698 22.6506C24.0006 22.4792 24.373 21.8288 24.2015 21.198L19.9298 5.48278C19.7583 4.85197 19.108 4.4796 18.4771 4.65107L18.4634 4.65481C17.8326 4.82628 17.4602 5.47664 17.6317 6.10745Z" fill="#4156EF"/>
<path d="M5.14697 20.6289L3.7854 15.6199C3.56097 14.7942 4.05198 13.9366 4.87765 13.7122L9.74909 12.388L11.9261 20.397L7.05465 21.7212C6.22898 21.9456 5.3714 21.4546 5.14697 20.6289Z" fill="#4156EF"/>
<path d="M1.56673 20.5088L0.725104 17.4125C0.609147 16.9859 0.859661 16.5484 1.28626 16.4324L3.8183 15.7441L5.07513 20.3679L2.54308 21.0562C2.11649 21.1721 1.67895 20.9216 1.56299 20.495L1.56673 20.5088Z" fill="#7DA2FF"/>
<path d="M23.7626 10.0295L26.9749 5.15211" stroke="#7DA2FF" stroke-width="1.72036" stroke-miterlimit="10" stroke-linecap="round"/>
<path d="M25.4258 16.1484L30.6651 18.7284" stroke="#7DA2FF" stroke-width="1.72036" stroke-miterlimit="10" stroke-linecap="round"/>
<path d="M24.4902 13.125L30.0892 11.6031" stroke="#7DA2FF" stroke-width="1.72036" stroke-miterlimit="10" stroke-linecap="round"/>
</g>
<defs>
<clipPath id="clip0_4126_10733">
<rect width="32" height="32" fill="white"/>
</clipPath>
</defs>
</svg>
