<svg width="24" height="24" viewBox="0 0 24 24" fill="none" xmlns="http://www.w3.org/2000/svg">
<g id="Frame 1437258637" clip-path="url(#clip0_3562_91180)">
<g id="Group">
<path id="Vector" d="M7.11652 20.2497L4.12068 13.5639L6.67787 12.4181L9.67372 19.1039C9.98861 19.8066 9.67079 20.6405 8.96805 20.9554C8.26531 21.2703 7.43142 20.9525 7.11652 20.2497Z" fill="#4E82EA"/>
<path id="Vector_2" d="M8.93237 15.303L16.346 16.1141L13.2881 4.86434L7.30242 9.30656L8.93237 15.303Z" fill="#7DA2FF"/>
<path id="Vector_3" d="M13.2235 4.58303L16.4273 16.3694C16.5559 16.8425 17.0437 17.1218 17.5168 16.9932L17.5271 16.9904C18.0002 16.8618 18.2795 16.374 18.1509 15.9009L14.9471 4.11452C14.8185 3.64142 14.3307 3.36214 13.8576 3.49074L13.8473 3.49355C13.3742 3.62215 13.0949 4.10992 13.2235 4.58303Z" fill="#4156EF"/>
<path id="Vector_4" d="M3.86022 15.4737L2.83905 11.7169C2.67073 11.0976 3.03898 10.4544 3.65823 10.2861L7.31182 9.29299L8.94457 15.2997L5.29099 16.2928C4.67174 16.4612 4.02855 16.0929 3.86022 15.4737Z" fill="#4156EF"/>
<path id="Vector_5" d="M1.17578 15.3835L0.54456 13.0613C0.457592 12.7414 0.645478 12.4132 0.965424 12.3263L2.86446 11.8101L3.80708 15.2779L1.90805 15.7941C1.5881 15.881 1.25994 15.6932 1.17297 15.3732L1.17578 15.3835Z" fill="#7DA2FF"/>
<path id="Vector_6" d="M17.8207 7.52404L20.2299 3.86604" stroke="#7DA2FF" stroke-width="1.72036" stroke-miterlimit="10" stroke-linecap="round"/>
<path id="Vector_7" d="M19.0684 12.1138L22.9979 14.0488" stroke="#7DA2FF" stroke-width="1.72036" stroke-miterlimit="10" stroke-linecap="round"/>
<path id="Vector_8" d="M18.3672 9.84521L22.5664 8.70379" stroke="#7DA2FF" stroke-width="1.72036" stroke-miterlimit="10" stroke-linecap="round"/>
</g>
</g>
<defs>
<clipPath id="clip0_3562_91180">
<rect width="24" height="24" fill="white"/>
</clipPath>
</defs>
</svg>
