<svg width="416" height="101" viewBox="0 0 416 101" fill="none" xmlns="http://www.w3.org/2000/svg">
<g filter="url(#filter0_d_3228_298759)">
<rect x="10" y="10" width="392" height="59" rx="12" fill="white"/>
<path d="M74.501 33.1641V36.5039H76.4639V37.4854H74.501V40.7373H73.3584V33.1641H74.501ZM64.3496 35.4639V34.5117H67.6602V33.0469H68.8027V34.5117H72.1133V35.4639H64.3496ZM65.0967 38.3496C65.0894 36.958 66.3418 36.0718 68.2314 36.0645C70.0991 36.0718 71.3516 36.958 71.3662 38.3496C71.3516 39.7412 70.0991 40.6421 68.2314 40.6348C66.3418 40.6421 65.0894 39.7412 65.0967 38.3496ZM66.1953 38.3496C66.188 39.1992 67.001 39.7559 68.2314 39.7559C69.4473 39.7559 70.2676 39.1992 70.2822 38.3496C70.2676 37.5073 69.4473 36.9434 68.2314 36.958C67.001 36.9434 66.188 37.5073 66.1953 38.3496ZM66.2686 46.0107V41.3086H67.4111V42.7002H73.3584V41.3086H74.501V46.0107H66.2686ZM67.4111 45.0879H73.3584V43.6084H67.4111V45.0879ZM84.1543 34.0576C84.1543 34.563 84.0957 35.0464 83.9932 35.5078H86.9229V33.1787H88.0801V40.9424H86.9229V39.2139H83.4658V38.2617H86.9229V36.46H83.6782C82.7993 38.5107 80.7559 39.9976 77.9434 40.7666L77.4893 39.8438C80.668 38.9648 82.6821 37.2217 82.9165 34.9951H78.1484V34.0576H84.1543ZM79.3203 42.4365V41.5137H88.0801V46.1719H86.9229V42.4365H79.3203ZM101.425 34.6582V35.6104H90.8633V34.6582H95.6094V33.0908H96.7373V34.6582H101.425ZM90.248 42.5537V41.6016H102.172V42.5537H96.7373V46.2158H95.6094V42.5537H90.248ZM91.9326 38.54C91.918 37.1338 93.5146 36.3574 96.1807 36.3574C98.8247 36.3574 100.421 37.1338 100.429 38.54C100.421 39.917 98.8247 40.6934 96.1807 40.708C93.5146 40.6934 91.918 39.917 91.9326 38.54ZM93.1191 38.54C93.1045 39.3457 94.2397 39.8218 96.1807 39.8145C98.0996 39.8218 99.2275 39.3457 99.2422 38.54C99.2275 37.7197 98.0996 37.2437 96.1807 37.2363C94.2397 37.2437 93.1045 37.7197 93.1191 38.54ZM113.979 33.1641V46.1865H112.821V33.1641H113.979ZM103.373 42.8027C106.896 41.1328 108.698 38.6353 108.954 35.5225H103.974V34.585H110.126C110.111 38.3276 108.368 41.6455 104.003 43.7402L103.373 42.8027ZM124.35 35.5811C124.357 37.3169 125.631 38.8989 127.558 39.5654L126.972 40.459C125.485 39.9316 124.35 38.8696 123.793 37.522C123.236 39.0015 122.042 40.1514 120.512 40.708L119.896 39.8145C121.845 39.126 123.207 37.4487 123.222 35.5811V35.0244H120.248V34.0869H127.279V35.0244H124.35V35.5811ZM121.596 42.6416V41.7041H130.121V46.1865H128.979V42.6416H121.596ZM128.979 41.0156V33.1641H130.121V36.6064H132.084V37.5879H130.121V41.0156H128.979ZM137.387 35.2148C137.372 37.0752 138.698 38.7085 140.609 39.3604L139.965 40.2539C138.529 39.7192 137.401 38.6572 136.837 37.2876C136.281 38.8477 135.094 40.0562 133.52 40.6494L132.89 39.7119C134.896 39.0088 136.229 37.2803 136.244 35.2588V33.9111H137.387V35.2148ZM135.014 43.7256C135.006 42.1582 136.669 41.2573 139.379 41.2646C142.082 41.2573 143.744 42.1582 143.744 43.7256C143.744 45.2783 142.082 46.1572 139.379 46.1572C136.669 46.1572 135.006 45.2783 135.014 43.7256ZM136.156 43.7256C136.149 44.6704 137.379 45.2417 139.379 45.2344C141.371 45.2417 142.602 44.6704 142.602 43.7256C142.602 42.7515 141.371 42.1729 139.379 42.1729C137.379 42.1729 136.149 42.7515 136.156 43.7256ZM139.643 36.9141V35.9619H142.543V33.1641H143.7V40.8838H142.543V36.9141H139.643ZM154.262 36.665C154.254 39.0454 155.873 41.4331 157.792 42.3047L157.089 43.2129C155.602 42.4951 154.32 40.9497 153.698 39.0967C153.097 41.0596 151.815 42.7075 150.292 43.4766L149.56 42.5098C151.5 41.6235 153.104 39.1333 153.119 36.665V34.292H154.262V36.665ZM159.213 46.2158V33.1641H160.37V46.2158H159.213ZM170.58 34.3945V45H169.247V35.7715H169.188L166.61 37.4854V36.1523L169.247 34.3945H170.58ZM176.879 45.1465C174.528 45.1465 173.166 43.1689 173.173 39.6973C173.166 36.2549 174.542 34.248 176.879 34.248C179.208 34.248 180.585 36.2549 180.585 39.6973C180.585 43.1689 179.23 45.1465 176.879 45.1465ZM174.447 39.6973C174.455 42.4438 175.341 43.9746 176.879 43.9746C178.41 43.9746 179.303 42.4438 179.296 39.6973C179.303 36.9507 178.402 35.3979 176.879 35.3906C175.355 35.3979 174.455 36.9507 174.447 39.6973ZM193.798 43.5938V44.5752H181.874V43.5938H187.221V40.5908H182.958V39.668H184.994V35.3906H182.929V34.4385H192.655V35.3906H190.59V39.668H192.626V40.5908H188.349V43.5938H193.798ZM186.137 39.668H189.462V35.3906H186.137V39.668ZM205.59 33.1787V42.7002H204.447V33.1787H205.59ZM195.146 37.2803C195.138 35.4053 196.61 34.0942 198.559 34.0869C200.507 34.0942 201.964 35.4053 201.972 37.2803C201.964 39.1772 200.507 40.4956 198.559 40.4883C196.61 40.4956 195.138 39.1772 195.146 37.2803ZM196.273 37.2803C196.259 38.5767 197.24 39.4775 198.559 39.4775C199.855 39.4775 200.844 38.5767 200.844 37.2803C200.844 36.0059 199.855 35.0977 198.559 35.0977C197.24 35.0977 196.259 36.0059 196.273 37.2803ZM197.182 45.9082V41.7334H198.324V44.9414H206V45.9082H197.182ZM218.349 40.21V41.1475H209.34V34.292H218.202V35.2588H210.512V37.1924H217.924V38.1152H210.512V40.21H218.349ZM207.802 44.4873V43.5352H219.726V44.4873H207.802ZM232.675 39.2139V40.1221H220.751V39.2139H232.675ZM222.187 42.0264V41.1621H231.181V43.9307H223.358V45.1758H231.605V46.0107H222.201V43.1396H230.038V42.0264H222.187ZM222.26 34.3945V33.5596H231.137V36.2549H223.446V37.3975H231.371V38.2324H222.304V35.4639H229.979V34.3945H222.26ZM245.683 34.3652V35.2441H237.992V34.3652H241.259V33.0908H242.401V34.3652H245.683ZM237.553 40.5469C238.659 40.5469 239.933 40.5396 241.259 40.4956V39.5874C239.713 39.4482 238.725 38.7524 238.739 37.6904C238.725 36.4819 239.962 35.7422 241.845 35.7422C243.698 35.7422 244.95 36.4819 244.965 37.6904C244.95 38.7524 243.947 39.4556 242.401 39.5874V40.4517C243.617 40.3931 244.848 40.2979 245.99 40.1367L246.078 40.957C243.222 41.4258 240.072 41.4697 237.729 41.4697L237.553 40.5469ZM239.442 43.418V42.4951H248.231V46.1865H247.074V43.418H239.442ZM239.823 37.6904C239.823 38.3569 240.622 38.8037 241.845 38.7891C243.046 38.8037 243.859 38.3569 243.852 37.6904C243.859 36.98 243.046 36.5479 241.845 36.5625C240.622 36.5479 239.823 36.98 239.823 37.6904ZM247.074 41.8799V33.208H248.231V41.8799H247.074ZM262.338 39.5068V40.459H250.458V39.5068H262.338ZM251.776 42.9639V42.0264H260.873V46.2598H259.73V42.9639H251.776ZM251.967 38.0566V33.6768H260.858V34.6143H253.109V37.1191H260.976V38.0566H251.967ZM273.5 33.1641V38.54H275.683V39.4922H273.5V46.1865H272.357V33.1641H273.5ZM263.349 36.2109V35.2588H266.703V33.3252H267.846V35.2588H271.098V36.2109H263.349ZM264.096 40.2832C264.088 38.5254 265.436 37.2949 267.289 37.2949C269.127 37.2949 270.468 38.5254 270.482 40.2832C270.468 42.0483 269.127 43.2715 267.289 43.2715C265.436 43.2715 264.088 42.0483 264.096 40.2832ZM265.194 40.2832C265.187 41.4697 266.073 42.3047 267.289 42.29C268.49 42.3047 269.369 41.4697 269.384 40.2832C269.369 39.104 268.49 38.2544 267.289 38.2617C266.073 38.2544 265.187 39.104 265.194 40.2832ZM287.123 33.1641V39.917H285.995V33.1641H287.123ZM276.474 38.877C278.437 38.1958 279.828 36.4526 279.828 34.541V33.5449H281V34.541C280.985 36.3794 282.392 38.0054 284.325 38.6426L283.754 39.5361C282.223 39.0161 281.015 37.9248 280.429 36.5186C279.843 38.0347 278.62 39.2285 277.074 39.7852L276.474 38.877ZM278.671 41.499V40.5762H287.138V43.6963H279.828V45.1025H287.606V46.04H278.7V42.8027H285.995V41.499H278.671ZM299.647 34.3799C299.655 36.2183 302.042 37.8003 304.394 38.1299L303.925 39.0674C301.903 38.7305 299.896 37.6099 299.062 36.0132C298.227 37.6245 296.227 38.7305 294.198 39.0674L293.729 38.1299C296.081 37.8003 298.461 36.2476 298.461 34.3799V33.6328H299.647V34.3799ZM293.114 41.4697V40.5029H304.979V41.4697H299.589V46.1865H298.461V41.4697H293.114ZM314.252 41.9092C314.245 43.0591 314.867 44.2822 316.105 44.9854C317.35 44.2163 318.009 42.9126 318.002 41.9092V41.1914H319.13V41.9092C319.123 43.2495 320.111 44.5825 321.781 45.1611L321.21 46.0107C319.906 45.5493 318.998 44.6411 318.544 43.5498C318.141 44.6045 317.343 45.6079 316.142 46.1133C314.875 45.6299 314.069 44.6777 313.681 43.5864C313.212 44.6338 312.318 45.542 311.073 46.0107L310.487 45.1611C312.135 44.5459 313.124 43.1543 313.139 41.9092V41.1914H314.252V41.9092ZM310.15 36.9873C310.143 35.1709 311.586 33.9331 313.563 33.9404C315.541 33.9331 316.969 35.1709 316.977 36.9873C316.969 38.7744 315.541 40.0049 313.563 40.0049C311.586 40.0049 310.143 38.7744 310.15 36.9873ZM311.278 36.9873C311.264 38.1958 312.223 39.0454 313.563 39.0527C314.889 39.0454 315.849 38.1958 315.849 36.9873C315.849 35.7715 314.889 34.9072 313.563 34.9219C312.223 34.9072 311.264 35.7715 311.278 36.9873ZM319.452 40.6201V33.1787H320.595V40.6201H319.452ZM326.308 34.1748C328.08 34.1821 329.362 35.7056 329.538 38.1445H332.46V33.1641H333.603V46.2158H332.46V39.0967H329.552C329.428 41.6528 328.124 43.2495 326.308 43.2422C324.381 43.2495 323.034 41.4917 323.041 38.7158C323.034 35.9473 324.381 34.1821 326.308 34.1748ZM324.14 38.7158C324.147 40.8325 325.026 42.2241 326.308 42.2168C327.582 42.2241 328.476 40.8325 328.476 38.7158C328.476 36.5991 327.582 35.2075 326.308 35.2002C325.026 35.2075 324.147 36.5991 324.14 38.7158ZM347.694 43.5498V44.5166H335.771V43.5498H338.729V40.0415C337.616 39.4629 336.942 38.5254 336.942 37.3389C336.942 35.3247 338.92 33.999 341.703 33.9844C344.486 33.999 346.464 35.3247 346.464 37.3389C346.464 38.5034 345.812 39.4263 344.735 40.0049V43.5498H347.694ZM338.056 37.3389C338.048 38.7964 339.564 39.7705 341.703 39.7705C343.82 39.7705 345.351 38.7964 345.351 37.3389C345.351 35.8813 343.82 34.9219 341.703 34.9365C339.564 34.9219 338.048 35.8813 338.056 37.3389ZM339.857 43.5498H343.578V40.4517C343.014 40.5981 342.384 40.6787 341.703 40.6787C341.037 40.6787 340.414 40.6055 339.857 40.459V43.5498Z" fill="#4B4F52"/>
<path d="M367.65 84.0402C368.851 85.5532 371.149 85.5532 372.35 84.0402L385.19 67.8653C386.751 65.8992 385.351 63 382.841 63H357.159C354.649 63 353.249 65.8992 354.81 67.8653L367.65 84.0402Z" fill="white"/>
</g>
<defs>
<filter id="filter0_d_3228_298759" x="0" y="0" width="416" height="101" filterUnits="userSpaceOnUse" color-interpolation-filters="sRGB">
<feFlood flood-opacity="0" result="BackgroundImageFix"/>
<feColorMatrix in="SourceAlpha" type="matrix" values="0 0 0 0 0 0 0 0 0 0 0 0 0 0 0 0 0 0 127 0" result="hardAlpha"/>
<feOffset dx="2" dy="2"/>
<feGaussianBlur stdDeviation="6"/>
<feColorMatrix type="matrix" values="0 0 0 0 0 0 0 0 0 0 0 0 0 0 0 0 0 0 0.12 0"/>
<feBlend mode="normal" in2="BackgroundImageFix" result="effect1_dropShadow_3228_298759"/>
<feBlend mode="normal" in="SourceGraphic" in2="effect1_dropShadow_3228_298759" result="shape"/>
</filter>
</defs>
</svg>
