<svg width="56" height="57" viewBox="0 0 56 57" fill="none" xmlns="http://www.w3.org/2000/svg">
<path d="M45.1069 41.1945C47.1781 37.9726 48.6356 32.7562 48.6356 28.537C48.6356 15.0356 40.0438 5.67671 27.5397 5.67671C15.1123 5.67671 6.52055 15.0356 6.52055 28.537C6.52055 41.9617 15.1123 51.3206 27.5397 51.3206C32.2959 51.3206 37.8959 49.0959 41.2712 45.7973L33.6767 37.8959L37.9726 33.6767L45.1069 41.1945ZM0 28.537C0 11.8137 11.4301 0 27.5397 0C43.726 0 55.1562 11.8137 55.1562 28.537C55.0795 34.3671 52.8548 41.5014 49.6329 45.874L56 52.4712L51.6274 56.6904L45.4137 50.1699C41.2712 54.1589 33.9068 56.9973 27.5397 56.9973C11.4301 56.9973 0 45.2603 0 28.537Z" fill="#589BFF"/>
</svg>
