<svg width="19" height="19" viewBox="0 0 19 19" fill="none" xmlns="http://www.w3.org/2000/svg">
<path d="M2.1304 16.6743L2.15726 4.12632C2.15807 3.74744 2.29 3.42704 2.55306 3.1651C2.81612 2.90316 3.13709 2.7726 3.51597 2.77341L15.0543 2.7981C15.4332 2.79891 15.7536 2.93085 16.0155 3.19391C16.2775 3.45697 16.408 3.77794 16.4072 4.15681L16.389 12.6952C16.3881 13.074 16.2562 13.3944 15.9931 13.6564C15.7301 13.9183 15.4091 14.0489 15.0302 14.0481L4.78995 14.0262L2.1304 16.6743ZM4.31349 12.9001L15.0326 12.9231C15.0904 12.9232 15.1433 12.8992 15.1914 12.8512C15.2397 12.8033 15.2638 12.7505 15.264 12.6928L15.2822 4.1544C15.2823 4.09665 15.2584 4.04373 15.2104 3.99562C15.1625 3.94739 15.1097 3.92322 15.0519 3.9231L3.51356 3.89841C3.45581 3.89828 3.40288 3.92223 3.35478 3.97025C3.30655 4.01815 3.28238 4.07097 3.28225 4.12872L3.26127 13.9365L4.31349 12.9001Z" fill="#777F90"/>
</svg>
