<svg width="18" height="18" viewBox="0 0 18 18" fill="none" xmlns="http://www.w3.org/2000/svg">
<path d="M4.01066 14.6253V13.5003H5.16004L6.60529 8.65572C6.69091 8.35947 6.85485 8.12409 7.0971 7.94959C7.33948 7.77509 7.60873 7.68784 7.90485 7.68784H10.0971C10.3932 7.68784 10.6625 7.77509 10.9049 7.94959C11.1471 8.12409 11.311 8.35947 11.3967 8.65572L12.8419 13.5003H13.9913V14.6253H4.01066ZM6.3456 13.5003H11.6564L10.3135 8.97878C10.2991 8.92578 10.2715 8.88491 10.2306 8.85616C10.1897 8.82728 10.1429 8.81284 10.09 8.81284H7.91198C7.8591 8.81284 7.81223 8.82728 7.77135 8.85616C7.73048 8.88491 7.70285 8.92578 7.68848 8.97878L6.3456 13.5003ZM8.43848 5.95703V2.58203H9.56348V5.95703H8.43848ZM12.7135 7.73397L11.9115 6.93203L14.3072 4.55509L15.0904 5.33828L12.7135 7.73397ZM13.6885 11.207V10.082H17.0635V11.207H13.6885ZM5.28848 7.73397L2.91154 5.33828L3.69473 4.55509L6.09041 6.93203L5.28848 7.73397ZM0.938477 11.207V10.082H4.31348V11.207H0.938477Z" fill="#777F90"/>
</svg>
