<svg width="20" height="20" viewBox="0 0 20 20" fill="none" xmlns="http://www.w3.org/2000/svg">
<path d="M8.81697 13.545L14.4195 7.94245L13.5413 7.06433L8.81697 11.7887L6.44197 9.4137L5.56384 10.2918L8.81697 13.545ZM10.0011 17.9168C8.90613 17.9168 7.8769 17.7091 6.91342 17.2935C5.94995 16.8779 5.1119 16.314 4.39926 15.6016C3.68662 14.8893 3.12238 14.0516 2.70655 13.0885C2.29085 12.1254 2.08301 11.0965 2.08301 10.0016C2.08301 8.90662 2.29079 7.87738 2.70634 6.91391C3.1219 5.95044 3.68586 5.11238 4.39822 4.39975C5.11058 3.68711 5.94829 3.12287 6.91134 2.70704C7.8744 2.29134 8.90335 2.0835 9.99822 2.0835C11.0932 2.0835 12.1225 2.29127 13.0859 2.70683C14.0494 3.12238 14.8875 3.68634 15.6001 4.3987C16.3127 5.11107 16.877 5.94877 17.2928 6.91183C17.7085 7.87488 17.9163 8.90384 17.9163 9.9987C17.9163 11.0937 17.7086 12.1229 17.293 13.0864C16.8775 14.0499 16.3135 14.8879 15.6011 15.6006C14.8888 16.3132 14.0511 16.8775 13.088 17.2933C12.125 17.709 11.096 17.9168 10.0011 17.9168Z" fill="#D1F75D"/>
</svg>
