<svg width="64" height="64" viewBox="0 0 64 64" fill="none" xmlns="http://www.w3.org/2000/svg">
<g id="upload_24dp_5F6368_FILL0_wght200_GRAD0_opsz24 1">
<path id="Vector" d="M30.6673 41.5374V18.4707L24.452 24.686L22.5646 22.768L32.0007 13.332L41.4366 22.768L39.5493 24.686L33.334 18.4707V41.5374H30.6673ZM17.642 50.6654C16.4144 50.6654 15.3895 50.2542 14.5673 49.432C13.7451 48.6098 13.334 47.5849 13.334 46.3574V39.896H16.0007V46.3574C16.0007 46.768 16.1715 47.1443 16.5133 47.486C16.8551 47.8278 17.2313 47.9987 17.642 47.9987H46.3593C46.77 47.9987 47.1462 47.8278 47.488 47.486C47.8298 47.1443 48.0006 46.768 48.0006 46.3574V39.896H50.6673V46.3574C50.6673 47.5849 50.2562 48.6098 49.434 49.432C48.6118 50.2542 47.5869 50.6654 46.3593 50.6654H17.642Z" fill="#589BFF"/>
</g>
</svg>
