<svg width="40" height="40" viewBox="0 0 40 40" fill="none" xmlns="http://www.w3.org/2000/svg">
<g clip-path="url(#clip0_4954_105558)">
<path d="M8.801 5.74219H34.915C35.514 5.74219 36 6.22819 36 6.82719V33.1762C36 33.7752 35.514 34.2612 34.915 34.2612H8.801C6.151 34.2612 4 32.1102 4 29.4602V10.5432C4 7.89319 6.151 5.74219 8.801 5.74219Z" fill="#956759"/>
<path d="M23.041 15.9531H36V24.0511H23.041C21.547 24.0511 20.334 22.8381 20.334 21.3441V18.6611C20.334 17.1671 21.547 15.9531 23.041 15.9531Z" fill="#C29D92"/>
<path d="M24.5695 22.4241C25.9077 22.4241 26.9925 21.3393 26.9925 20.0011C26.9925 18.6629 25.9077 17.5781 24.5695 17.5781C23.2313 17.5781 22.1465 18.6629 22.1465 20.0011C22.1465 21.3393 23.2313 22.4241 24.5695 22.4241Z" fill="#5E403B"/>
</g>
<defs>
<clipPath id="clip0_4954_105558">
<rect width="40" height="40" fill="white"/>
</clipPath>
</defs>
</svg>
