<svg width="40" height="40" viewBox="0 0 40 40" fill="none" xmlns="http://www.w3.org/2000/svg">
<path d="M6.11523 16.4779L15.6625 5.47838C15.9876 5.10057 16.5619 5.0574 16.9304 5.38123L32.3945 18.6907L15.4674 23.2675L6.11523 16.4779Z" fill="#589BFF" fill-opacity="0.25"/>
<path d="M3.7793 19.6216L9.87023 6.27844C10.0773 5.82133 10.6112 5.62543 11.0688 5.83221L29.7666 14.354L14.7299 23.5615L3.7793 19.6325V19.6216Z" fill="#93BEFF"/>
<path d="M33.9701 10.125H4.53956C3.63589 10.125 2.90332 10.8568 2.90332 11.7594V33.0179C2.90332 33.9205 3.63589 34.6523 4.53956 34.6523H33.9701C34.8738 34.6523 35.6064 33.9205 35.6064 33.0179V11.7594C35.6064 10.8568 34.8738 10.125 33.9701 10.125Z" fill="#589BFF"/>
<path d="M26.5754 18.0078H36.0864C36.4686 18.0078 36.7744 18.3117 36.7744 18.6917V26.0837C36.7744 26.4636 36.4686 26.7676 36.0864 26.7676H26.5754C24.1403 26.7676 22.1748 24.8029 22.1748 22.3931C22.1748 19.9725 24.1513 18.0187 26.5754 18.0187V18.0078Z" fill="#4080DB"/>
<path d="M26.5547 24.4316C27.6835 24.4316 28.5986 23.5165 28.5986 22.3877C28.5986 21.2589 27.6835 20.3438 26.5547 20.3438C25.4258 20.3438 24.5107 21.2589 24.5107 22.3877C24.5107 23.5165 25.4258 24.4316 26.5547 24.4316Z" fill="#295BA5"/>
</svg>
