<svg width="123" height="124" viewBox="0 0 123 124" fill="none" xmlns="http://www.w3.org/2000/svg">
<path d="M22.0159 54.0128C23.4555 57.0588 25.6209 59.8777 28.8674 60.6074C28.935 64.5365 29.9785 67.9665 31.6247 71.6881C31.6247 71.6881 32.3295 73.1484 32.5792 73.7638C34.264 77.2487 36.1933 80.3053 39.4088 82.7809C43.5618 85.9794 48.9135 87.3277 54.0068 88.0615C52.9734 87.9127 52.6272 82.7205 51.5197 82.5612C44.7638 81.5915 38.1737 79.3975 33.5569 74.1299C33.0382 73.5385 32.5951 72.8876 32.1528 72.2388C32.1322 72.2092 32.1139 72.1849 32.0947 72.1565C31.7574 71.0976 31.4915 70.003 31.3878 68.8975C31.1799 66.7046 31.3414 64.4556 31.5399 62.2702C31.5849 61.7758 31.634 61.2466 31.6944 60.6957C34.6326 60.2436 37.2975 58.1543 39.1033 55.9258C40.8399 53.7821 41.1767 52.0758 40.5312 49.9278C40.2565 48.886 39.2707 46.2724 38.5809 45.2C38.3231 44.7673 38.0275 44.38 37.6587 44.1014C36.206 42.9989 34.1821 43.6469 32.9731 44.7292C30.4238 47.0067 29.5739 51.2513 29.1892 55.0121C26.3595 55.3522 23.4622 54.3842 21.3296 51.628C21.2448 51.5186 21.1758 51.3981 21.0955 51.2824C20.8396 50.1987 20.7856 49.0739 20.7943 47.9626C20.8153 45.2837 21.6611 42.6487 22.7238 40.2159C25.0078 34.9949 29.0243 30.5231 33.5166 27.0942C36.4225 24.8775 40.1077 22.9962 43.8806 22.2521C44.1178 23.424 44.463 24.5732 44.9015 25.6836C45.2792 26.6318 45.4153 27.0448 45.7435 27.7001C46.9524 30.5809 47.9841 33.6806 51.6312 33.6356C54.1937 33.6051 56.5911 31.4528 57.1114 29.0069C57.3996 27.661 56.7593 26.4346 56.2295 25.2434C55.4031 23.3854 54.7195 21.1875 53.3233 19.6552C51.9076 18.1 49.9436 17.194 47.8352 16.7587C48.7006 15.1089 49.8336 13.5871 51.2089 12.2665C57.4727 6.24473 67.9154 5.02824 75.919 7.61731C75.5696 7.50437 74.8551 5.18945 74.7037 4.85599C74.5366 4.48552 73.8515 2.25445 73.4343 2.12037C63.4124 -1.12422 49.85 1.76564 44.9578 11.927C44.2607 13.377 43.8541 14.9061 43.6509 16.4584C42.4636 16.5185 41.3083 16.6898 40.2569 16.9462C34.8865 18.2545 30.1409 21.8409 26.374 25.7537C22.5756 29.6995 19.5592 34.6785 18.5448 40.1024C17.5914 45.2016 19.9011 49.5386 22.0159 54.0128ZM36.4857 49.4669C36.802 49.2773 37.1643 49.1582 37.5414 49.0926C36.5097 50.9852 35.0037 52.5191 33.2687 53.5617C33.9818 51.841 34.9997 50.3547 36.4857 49.4669ZM54.4819 24.0913C54.2619 24.7617 53.8807 25.3846 53.4443 25.9258C52.154 27.5349 49.9698 28.4186 47.9418 28.0321C47.2617 27.9026 46.6774 27.5577 46.162 27.1211C46.0324 26.1585 46.0052 25.1766 45.9959 24.2095C45.9873 23.4417 46.0575 22.6913 46.1601 21.9477C49.0749 21.7534 51.9541 22.3448 54.4819 24.0913Z" fill="#589BFF"/>
<path d="M37.6586 44.0998C36.2059 42.9972 34.182 43.6453 32.973 44.7276C30.4237 47.005 29.5739 51.2497 29.1892 55.0105C28.8682 57.4637 28.8658 60.6064 28.8658 60.6064C28.9291 64.351 29.8872 67.6451 31.402 71.1684C31.676 71.5996 31.9327 71.9605 32.1641 72.2555C32.1593 72.2505 32.1557 72.244 32.1513 72.2378C32.1307 72.2082 32.1123 72.1839 32.0931 72.1555C31.7559 71.0966 31.49 70.002 31.3862 68.8965C31.1783 66.7036 31.3399 64.4546 31.5383 62.2692C31.5834 61.7748 31.6325 61.2456 31.6928 60.6947C31.9859 57.4071 33.2674 53.5615 33.2674 53.5615C33.9803 51.84 34.9984 50.3545 36.4844 49.4667C36.8008 49.277 37.1631 49.158 37.5401 49.0924C38.463 48.9093 39.6955 49.4409 40.5156 49.881C40.2275 48.8119 39.2608 46.258 38.579 45.1983C38.3223 44.766 38.0267 44.3787 37.6586 44.0998Z" fill="#9D5DF0"/>
<path d="M21.3858 51.6973C21.3858 51.6973 21.3759 51.6807 21.3678 51.6681L21.3858 51.6973Z" fill="#965CF2"/>
<path d="M26.3767 25.7544C22.5783 29.7002 19.562 34.6792 18.5475 40.1031C17.9947 43.0605 18.5403 45.761 19.5081 48.3804C20.1393 49.6276 20.7411 50.65 21.0852 51.2146C20.8412 50.1508 20.7886 49.0522 20.7963 47.9636C20.8173 45.2847 21.663 42.6497 22.7257 40.2169C25.0097 34.9959 29.0262 30.5242 33.5185 27.0953C36.4245 24.8786 40.1096 22.9973 43.8825 22.2532C44.591 22.0986 44.7141 22.0526 46.1613 21.9491C49.0765 21.7537 51.955 22.3454 54.4828 24.0919C55.4423 24.6316 56.2465 25.6769 56.8207 26.6093C56.6451 26.1453 56.4311 25.6939 56.2317 25.2453C55.4053 23.3872 54.7218 21.1893 53.3256 19.657C51.9099 18.1018 49.9459 17.1959 47.8375 16.7606C45.9205 16.4277 43.6536 16.4592 43.6536 16.4592C42.4663 16.5192 41.311 16.6905 40.2597 16.947C34.8892 18.2553 30.1429 21.842 26.3767 25.7544Z" fill="#9D5DF0"/>
<path d="M17.4223 57.042C17.4223 57.042 21.3057 50.5703 20.7807 47.7629C16.761 50.3392 12.3303 49.7378 8.46202 48.094L4.93424 55.0694C11.7662 57.6797 17.4223 57.042 17.4223 57.042Z" fill="#82D9FF"/>
<path d="M47.0799 61.7447L55.5195 50.9131L56.7398 65.207L47.0799 61.7447Z" fill="#589BFF"/>
<path d="M109.408 85.139L113.292 81.9353L105.366 81.0761L109.408 85.139Z" fill="#D1F75D"/>
<path d="M8.71571 22.099L6.39286 26.5668L3.89842 18.9952L8.71571 22.099Z" fill="#965CF2"/>
<path d="M42.0629 6.54325L41.8529 2.86405L38.3616 7.26525L42.0629 6.54325Z" fill="#82D9FF"/>
<path d="M69.3774 42.3872L66.7306 45.784L65.9453 38.9199L69.3774 42.3872Z" fill="#D1F75D"/>
<path d="M86.9037 45.5321L89.6431 41.3042L91.5136 46.8901L86.9037 45.5321Z" fill="#965CF2"/>
<path d="M100.18 18.6878L93.7739 15.0791L91.949 17.8913L98.355 21.5001L100.18 18.6878Z" fill="#82D9FF"/>
<path d="M30.7441 16.1647L33.6016 12.0161L35.1415 19.8389L30.7441 16.1647Z" fill="#D1F75D"/>
<path d="M61.4288 37.8136L59.1067 42.2811L56.6118 34.7106L61.4288 37.8136Z" fill="#965CF2"/>
<path d="M34.521 71.7762L36.4715 74.9039L31.0815 73.3204L34.521 71.7762Z" fill="#82D9FF"/>
<path d="M77.2182 88.7471L70.9873 82.8364L68.4972 85.4614L74.728 91.3721L77.2182 88.7471Z" fill="#82D9FF"/>
<path d="M57.0566 120.167L54.4104 124.13L53.6245 116.122L57.0566 120.167Z" fill="#D1F75D"/>
<path d="M76.9758 85.8805L72.2358 86.3657L77.9067 80.6572L76.9758 85.8805Z" fill="#D1F75D"/>
<path d="M61.538 100.475L56.7573 93L71.5512 96.7721L61.538 100.475Z" fill="#965CF2"/>
<path d="M75.361 35.1441L73.2339 32.9414L67.3771 38.4406L69.5042 40.6433L75.361 35.1441Z" fill="#589BFF"/>
<path d="M86.0171 97.0582C90.8655 107.154 98.3018 113.398 109.314 104.397C109.771 104.025 109.733 97.4168 110.124 97.0973C99.1122 106.097 91.6764 99.8528 86.8272 89.7581C87.0111 90.1413 86.4644 92.8242 86.3988 93.4174C86.3273 94.0643 85.8089 96.6248 86.0171 97.0582Z" fill="#58BBF8" fill-opacity="0.2"/>
<path d="M97.8803 89.956C97.8803 89.956 99.7093 101.187 89.6385 110.379C88.1883 107.809 85.3073 106.149 85.3073 106.149C85.3073 106.149 95.7898 95.3665 90.2088 88.0055C92.4799 87.3956 97.8803 89.956 97.8803 89.956Z" fill="#965CF2"/>
<path d="M92.1511 71.6106C93.6423 70.6417 93.3091 71.2506 92.1511 71.6106V71.6106Z" fill="#82D9FF"/>
<path d="M104.23 54.8956C103.506 56.2357 102.895 57.6566 102.313 59.1001C101.324 61.544 100.344 64.1389 98.954 66.3282C99.9239 64.9447 100.74 63.4329 101.438 61.8203C102.579 59.1894 103.475 56.0724 105.021 53.6651C105.021 53.6651 105.018 53.6637 105.016 53.6645C104.736 54.058 104.466 54.461 104.23 54.8956Z" fill="#82D9FF"/>
<path d="M116.874 60.0019C117.762 60.7071 121.194 56.535 122.006 57.1792C117.985 53.9846 112.809 50 108.301 51.0944C105.611 51.7462 102.441 53.6578 100.535 55.6505C98.1753 58.1197 97.158 62.1321 95.7488 65.3834C94.905 67.3293 93.9042 69.1442 92.6481 70.7434C92.6118 70.788 92.5674 70.8247 92.5303 70.8709C92.2812 71.1703 92.0187 71.4558 91.7417 71.7224C91.6127 71.7497 91.4785 71.7742 91.3373 71.7914C85.1013 72.5716 78.5284 65.5037 72.8591 62.1419C71.337 61.2398 69.7224 60.5745 68.1713 60.4007L64.343 63.4607C64.4239 63.4822 64.505 63.4947 64.5851 63.5178C67.3247 64.3091 69.9979 66.3712 72.4556 68.153C77.8508 72.0631 83.6984 76.3963 89.1636 73.7083C89.7449 73.4222 90.3324 73.1315 90.9182 72.8317C90.9582 72.8119 90.9964 72.792 91.036 72.7714C91.6245 72.4701 92.2075 72.155 92.786 71.8289C92.8187 71.8087 92.8531 71.7898 92.8869 71.7701C93.4683 71.4368 94.0366 71.0839 94.5909 70.7118C94.6117 70.6971 94.6318 70.6826 94.6532 70.6675C95.4738 70.1097 96.257 69.5042 96.9713 68.8201C99.5484 66.351 100.912 62.5671 102.314 59.1013C102.897 57.6575 103.506 56.2369 104.23 54.8968C104.466 54.4626 104.736 54.0596 105.017 53.6653C108.963 53.709 113.613 57.4108 116.874 60.0019Z" fill="#82D9FF"/>
<path d="M91.3358 71.7894C85.0998 72.5697 78.5269 65.5017 72.8576 62.14C71.3355 61.2379 69.7209 60.5726 68.1698 60.3987L64.3414 63.4587C64.4224 63.4802 64.5035 63.4928 64.5836 63.5159C67.3232 64.3072 69.9964 66.3692 72.4541 68.151C77.8493 72.0611 83.6969 76.3944 89.1621 73.7063C89.7434 73.4202 90.3309 73.1295 90.9167 72.8297C90.9567 72.8099 90.9949 72.79 91.0345 72.7694C91.623 72.4681 92.206 72.153 92.7845 71.827C92.8172 71.8067 92.8516 71.7879 92.8854 71.7681C92.9467 71.7344 93.0036 71.693 93.0627 71.6571C92.5384 71.7462 92.0115 71.7773 91.4813 71.7643C91.4324 71.7721 91.3875 71.7834 91.3358 71.7894Z" fill="#965CF2"/>
<path d="M109.091 54.7455C111.887 56.0442 114.69 58.2691 116.872 60.0033C117.76 60.7085 121.192 56.5363 122.004 57.1805C118.783 54.6222 114.823 51.5648 111.056 51.0057C110.8 51.3694 110.549 51.7384 110.333 52.1381C109.877 52.9779 109.477 53.8569 109.091 54.7455Z" fill="#82D9FF"/>
<path d="M122.005 57.1796C118.534 54.4221 114.202 51.0828 110.182 50.9241C109.545 50.8971 108.916 50.9443 108.3 51.0948C107.789 51.2179 107.26 51.4001 106.727 51.6062C106.556 51.7675 106.38 51.9278 106.225 52.0904C105.775 52.5596 105.386 53.0996 105.021 53.6664C106.126 53.6802 107.286 53.9853 108.455 54.4667C111.461 55.7052 114.527 58.1381 116.874 60.002C117.762 60.7075 121.194 56.535 122.005 57.1796Z" fill="#965CF2"/>
<path d="M7.0018 121.014L49.85 105.779C52.9852 104.662 53.9086 100.69 51.5586 98.3312L24.3529 71.0242C22.0029 68.6654 18.0065 69.5531 16.8597 72.6659L1.2172 115.208C-0.113064 118.817 3.36673 122.31 7.0018 121.014Z" fill="#589BFF"/>
<path d="M48.5742 95.3835L34.1578 80.9135L14.7484 78.3058L10.3901 90.261L48.5742 95.3835Z" fill="#E1EFFF"/>
<path d="M43.3981 108.101L6.53892 100.725L2.181 112.59L20.4519 116.232L43.3981 108.101Z" fill="#E1EFFF"/>
</svg>
