<svg width="124" height="124" viewBox="0 0 124 124" fill="none" xmlns="http://www.w3.org/2000/svg">
<path opacity="0.5" d="M106.826 4H17.2159C14.9959 4 13.1963 5.79966 13.1963 8.01964V66.5278C13.1963 68.7478 14.9959 70.5475 17.2159 70.5475H106.826C109.046 70.5475 110.845 68.7478 110.845 66.5278V8.01964C110.845 5.79966 109.046 4 106.826 4Z" fill="#589BFF"/>
<path opacity="0.8" d="M114.418 17.3984H9.58217C7.36218 17.3984 5.5625 19.1981 5.5625 21.4181V90.3205C5.5625 92.5405 7.36218 94.3401 9.58217 94.3401H114.418C116.638 94.3401 118.437 92.5405 118.437 90.3205V21.4181C118.437 19.1981 116.638 17.3984 114.418 17.3984Z" fill="#589BFF"/>
<path d="M119.98 35.5938H4.01964C1.79965 35.5938 0 37.3934 0 39.6134V116.108C0 118.328 1.79965 120.128 4.01964 120.128H119.98C122.2 120.128 124 118.328 124 116.108V39.6134C124 37.3934 122.2 35.5938 119.98 35.5938Z" fill="#589BFF"/>
<path d="M58.8181 94.2943C57.3528 94.2943 55.8875 93.6773 54.962 92.5205L41.3887 77.4047C39.4606 75.2453 39.6148 72.0063 41.7742 70.0782C43.9336 68.1502 47.1728 68.3045 49.1008 70.4639L58.8181 81.2608L75.7075 62.4432C77.6356 60.2838 80.9518 60.1296 83.0341 62.0576C85.1935 63.9856 85.3477 67.3019 83.4197 69.3842L62.6741 92.5205C61.6715 93.6002 60.2834 94.2171 58.8181 94.2171V94.2943Z" fill="white"/>
</svg>
