<svg width="124" height="95" viewBox="0 0 124 95" fill="none" xmlns="http://www.w3.org/2000/svg">
<g id="Group 1437257738">
<g id="Group">
<path id="Vector" d="M19.5254 0.03125C16.0231 0.03125 13.1816 2.87272 13.1816 6.37499V94.4606H25.8691V6.37499C25.8691 2.87272 23.0277 0.03125 19.5254 0.03125Z" fill="#FABB48"/>
<path id="Vector_2" d="M98.1287 94.4297H110.816L110.816 6.0467C110.816 2.70963 108.107 0.000305176 104.77 0.000305176H104.142C100.805 0.000305176 98.0957 2.70963 98.0957 6.0467L98.0957 94.4297H98.1287Z" fill="#FABB48"/>
<path id="Vector_3" d="M4.62548 83.6875H34.4609V94.4256H4.62548V83.6875Z" fill="#FABB48"/>
<path id="Vector_4" d="M89.5718 83.6875H119.407V94.4256H89.5718V83.6875Z" fill="#FABB48"/>
</g>
<g id="Group_2">
<path id="Vector_5" d="M124 9.61719V43.9791H116.467L95.8826 9.61719H124Z" fill="#FFCC3E"/>
<path id="Vector_6" d="M40.2098 9.61719L60.7939 43.9791H43.8773L23.2931 9.61719H40.2098Z" fill="#FFCC3E"/>
<path id="Vector_7" d="M24.5156 43.9791H-0.000322342V9.61719H3.93148L24.5156 43.9791Z" fill="#FFCC3E"/>
<path id="Vector_8" d="M76.4873 9.61719L97.1045 43.9791H80.1878L59.6037 9.61719H76.4873Z" fill="#FFCC3E"/>
<path id="Vector_9" d="M95.8826 9.61719L116.467 43.9791H97.1051L76.488 9.61719H95.8826Z" fill="#FFDD88"/>
<path id="Vector_10" d="M59.6053 9.61719L80.1895 43.9791H60.7948L40.2106 9.61719H59.6053Z" fill="#FFDD88"/>
<path id="Vector_11" d="M23.2928 9.61719L43.877 43.9791H24.5153L3.93114 9.61719H23.2928Z" fill="#FFDD88"/>
</g>
</g>
</svg>
