<svg width="124" height="124" viewBox="0 0 124 124" fill="none" xmlns="http://www.w3.org/2000/svg">
<path d="M92.6487 22.1776L62.4325 0L32.2163 22.1776L4.13794 42.7873C2.79816 43.7565 2 45.3244 2 46.9777V95.2382H122.808V46.9777C122.808 45.3244 122.01 43.7565 120.67 42.7873L92.5917 22.1776H92.6487Z" fill="#93BEFF"/>
<path d="M100.06 15.9922H24.5479C21.5567 15.9922 19.1318 18.4171 19.1318 21.4083V108.437C19.1318 111.428 21.5567 113.853 24.5479 113.853H100.06C103.051 113.853 105.476 111.428 105.476 108.437V21.4083C105.476 18.4171 103.051 15.9922 100.06 15.9922Z" fill="#F4F6FA"/>
<path d="M61.0645 86.9432L91.9649 68.4429L122.837 49.9141V86.9432V118.243L91.9649 105.472L61.0645 86.9432Z" fill="#589BFF"/>
<path d="M63.7731 86.9432L32.9012 68.4429L2.0293 49.9141V86.9432V118.243L32.9012 105.472L63.7731 86.9432Z" fill="#589BFF"/>
<path d="M92.6503 93.5242L65.5412 73.5986C63.7168 72.2588 61.2083 72.2588 59.3839 73.5986L32.2748 93.5242L2.05859 115.702V118.78C2.05859 121.66 4.39608 123.997 7.27518 123.997H117.678C120.558 123.997 122.895 121.66 122.895 118.78V115.702L92.6788 93.5242H92.6503Z" fill="#93BEFF"/>
<path d="M66.6807 38.877C67.5938 38.877 68.334 38.1368 68.334 37.2237C68.334 36.3105 67.5938 35.5703 66.6807 35.5703C65.7676 35.5703 65.0273 36.3105 65.0273 37.2237C65.0273 38.1368 65.7676 38.877 66.6807 38.877Z" fill="#7D8595"/>
<path d="M66.0809 37.1677C66.3171 37.1677 66.5085 36.9762 66.5085 36.7401C66.5085 36.5039 66.3171 36.3125 66.0809 36.3125C65.8448 36.3125 65.6533 36.5039 65.6533 36.7401C65.6533 36.9762 65.8448 37.1677 66.0809 37.1677Z" fill="white"/>
<path d="M58.2148 38.877C59.1279 38.877 59.8682 38.1368 59.8682 37.2237C59.8682 36.3105 59.1279 35.5703 58.2148 35.5703C57.3017 35.5703 56.5615 36.3105 56.5615 37.2237C56.5615 38.1368 57.3017 38.877 58.2148 38.877Z" fill="#7D8595"/>
<path d="M57.6434 37.1677C57.8795 37.1677 58.071 36.9762 58.071 36.7401C58.071 36.5039 57.8795 36.3125 57.6434 36.3125C57.4072 36.3125 57.2158 36.5039 57.2158 36.7401C57.2158 36.9762 57.4072 37.1677 57.6434 37.1677Z" fill="white"/>
<path d="M62.4328 38.9062C61.7486 38.9062 61.1785 39.3909 61.0645 40.0465C61.0645 40.1605 61.15 40.2745 61.264 40.2745H63.63C63.63 40.2745 63.858 40.1605 63.8295 40.0465C63.7155 39.3909 63.1454 38.9062 62.4613 38.9062H62.4328Z" fill="#7D8595"/>
<path d="M76.2017 36.7413C76.2017 29.0447 70.0445 22.7734 62.4334 22.7734C54.8223 22.7734 48.665 29.0162 48.665 36.7413C48.665 39.7629 49.6057 42.5565 51.2306 44.837C51.2306 44.5519 51.2306 44.2669 51.2306 43.9533C51.2306 36.3422 56.2476 30.1564 62.4334 30.1279C62.1483 29.4723 62.2623 28.3606 62.6044 27.4769C63.0605 26.2511 63.8302 25.8236 64.6568 26.1371C65.4835 26.4507 65.7686 27.3059 65.3125 28.5031C65.2555 28.6456 65.1985 28.8167 65.1129 28.9592C65.7971 28.5886 66.3387 28.6742 66.5952 29.1588C66.8803 29.6434 66.6807 30.185 65.9681 30.584C65.9111 30.6126 65.8256 30.6696 65.7686 30.6981C70.3865 32.4084 73.7502 37.682 73.7502 43.9248C73.7502 44.2099 73.7502 44.5234 73.7502 44.8085C75.3466 42.528 76.3157 39.7344 76.3157 36.7128L76.2017 36.7413Z" fill="#7D8595"/>
<path d="M92.5358 56.9215H31.7612C30.6495 56.9215 29.7373 56.2089 29.7373 55.2967C29.7373 54.3845 30.6495 53.6719 31.7612 53.6719H92.5358C93.6475 53.6719 94.5597 54.3845 94.5597 55.2967C94.5597 56.2089 93.6475 56.9215 92.5358 56.9215Z" fill="#7D8595"/>
<path d="M82.7869 64.4528H41.4819C40.3702 64.4528 39.458 63.7401 39.458 62.828C39.458 61.9158 40.3702 61.2031 41.4819 61.2031H82.7869C83.8987 61.2031 84.8108 61.9158 84.8108 62.828C84.8108 63.7401 83.8987 64.4528 82.7869 64.4528Z" fill="#7D8595"/>
</svg>
