<svg width="124" height="124" viewBox="0 0 124 124" fill="none" xmlns="http://www.w3.org/2000/svg">
<g id="Group 1437257743">
<g id="Group 1437257734">
<path id="Vector" d="M113.883 48.0786L104.275 42.146C103.595 41.7297 102.722 42.2501 102.722 43.1175V48.7378H88.0352C87.4529 48.7378 87 49.2235 87 49.848V60.152C87 60.7765 87.4529 61.2622 88.0352 61.2622H102.722V66.8825C102.722 67.7499 103.595 68.2703 104.275 67.854L113.883 61.9214L123.49 55.9888C124.17 55.5724 124.17 54.4969 123.49 54.0806L113.883 48.148V48.0786Z" fill="#4188EB"/>
<g id="Group 1437257745">
<path id="Vector_2" d="M73.0889 -0.203125H6.53163C2.92431 -0.203125 0 2.72118 0 6.3285V102.376C0 105.983 2.92431 108.908 6.53163 108.908H73.0889C76.6962 108.908 79.6205 105.983 79.6205 102.376V6.3285C79.6205 2.72118 76.6962 -0.203125 73.0889 -0.203125Z" fill="#93BEFF"/>
<path id="Vector_3" d="M52.253 123.536L4.73543 109.657C1.92683 108.84 0 106.228 0 103.288V6.42438C0 2.01553 4.14758 -1.15231 8.32782 0.0560426L55.8454 13.9357C58.654 14.7522 60.5808 17.3649 60.5808 20.3041V117.168C60.5808 121.577 56.4006 124.745 52.253 123.536Z" fill="#4188EB"/>
<path id="Vector_4" d="M50.2273 74.0621C52.6262 74.0621 54.5709 72.1174 54.5709 69.7185C54.5709 67.3197 52.6262 65.375 50.2273 65.375C47.8285 65.375 45.8838 67.3197 45.8838 69.7185C45.8838 72.1174 47.8285 74.0621 50.2273 74.0621Z" fill="#93BEFF"/>
</g>
</g>
</g>
</svg>
