<svg width="123" height="121" viewBox="0 0 123 121" fill="none" xmlns="http://www.w3.org/2000/svg">
<g id="Group 1437257732">
<path id="Vector" d="M80.5262 74.6413C66.0935 84.9651 52.6316 97.6589 40.7554 112.593C21.954 88.6985 7.52131 58.9607 0.240234 25.1323C17.2618 14.4189 34.9952 6.27024 52.8258 0.71875C56.3854 29.3852 66.5466 54.578 80.5262 74.6413Z" fill="#D4E1E8"/>
<g id="Group">
<path id="Vector_2" d="M72.1689 17.306C70.1923 17.9865 68.1831 18.6994 66.2065 19.4447C65.526 15.9126 64.9751 12.3158 64.5215 8.65405C66.563 7.97356 68.572 7.35787 70.6135 6.74219C71.0347 10.3067 71.5532 13.8388 72.1689 17.306Z" fill="#589BFF"/>
<path id="Vector_3" d="M74.8909 29.6207C72.9466 30.3985 71.0348 31.2086 69.1229 32.0511C68.2156 28.681 67.3731 25.2137 66.6602 21.7141C68.6368 20.9364 70.6135 20.2235 72.5902 19.543C73.2707 22.9778 74.0484 26.3479 74.9233 29.6532L74.8909 29.6207Z" fill="#7DA2FF"/>
<path id="Vector_4" d="M94.5935 79.9442C79.6551 90.9293 65.8508 104.701 53.9908 121.001C33.2843 95.8872 17.633 63.8068 10.666 27.0602C28.7153 15.6214 47.5747 7.16385 66.4989 1.6875C69.0912 32.3421 79.655 59.173 94.5611 79.9442H94.5935Z" fill="#EBEFF2"/>
<path id="Vector_5" d="M61.3784 15.396C54.4438 17.9883 47.5741 21.0344 40.7692 24.4692C40.5423 23.3675 40.3479 22.2333 40.1211 21.1316C46.9908 17.7615 53.9253 14.8127 60.8923 12.2852C61.0543 13.3221 61.2164 14.359 61.3784 15.396Z" fill="#98AEB7"/>
<path id="Vector_6" d="M62.9344 23.5265C56.1295 26.3457 49.3894 29.5537 42.7465 33.183C42.4872 32.1137 42.228 31.0119 41.9688 29.9102C48.6765 26.3457 55.4814 23.2024 62.3187 20.4805C62.5132 21.485 62.7076 22.5219 62.9344 23.5265Z" fill="#98AEB7"/>
<path id="Vector_7" d="M64.8147 31.4343C58.1394 34.4479 51.5612 37.8504 45.0479 41.6741C44.7239 40.6048 44.4323 39.5678 44.1406 38.4985C50.6863 34.7396 57.3293 31.4019 64.0694 28.4531C64.2962 29.4577 64.5554 30.4298 64.8147 31.4019V31.4343Z" fill="#98AEB7"/>
<path id="Vector_8" d="M67.0164 39.1156C53.9574 45.4993 41.2225 53.5356 29.1681 63.1921C28.7468 62.0904 28.3256 60.9886 27.9043 59.8869C40.1208 50.36 52.9853 42.4533 66.1415 36.1992C66.4332 37.1714 66.7248 38.1111 67.0164 39.0832V39.1156Z" fill="#98AEB7"/>
<path id="Vector_9" d="M69.5771 46.5368C56.8097 53.3093 44.3988 61.7021 32.7332 71.715C32.2795 70.6457 31.7935 69.5763 31.3398 68.507C43.1675 58.6236 55.6756 50.3605 68.5726 43.75C68.8966 44.6897 69.2206 45.6295 69.5771 46.5368Z" fill="#98AEB7"/>
<path id="Vector_10" d="M72.4275 53.7275C59.9518 60.8564 47.8974 69.6381 36.6207 79.9751C36.1022 78.9381 35.6161 77.9336 35.0977 76.8966C46.5364 66.6893 58.6881 58.0697 71.2934 51.0703C71.6498 51.9776 72.0387 52.885 72.3951 53.7599L72.4275 53.7275Z" fill="#98AEB7"/>
<path id="Vector_11" d="M63.0961 69.0552C55.3839 74.6935 47.9308 80.98 40.8019 87.9469C40.251 86.9748 39.7001 85.9703 39.1816 84.9657C46.3754 78.0636 53.9257 71.8419 61.7351 66.3008C62.1888 67.2081 62.6425 68.1154 63.0961 69.0228V69.0552Z" fill="#98AEB7"/>
<path id="Vector_12" d="M41.7417 45.1729C36.5246 48.4457 31.4047 51.9778 26.3496 55.7691C23.7573 48.2837 21.5537 40.5391 19.7715 32.5352C25.183 29.1327 30.6918 25.9895 36.2329 23.1055C37.6587 30.6881 39.5058 38.0763 41.7417 45.1729ZM27.5486 50.6816C31.1131 48.1541 34.71 45.7238 38.3393 43.4555C36.8162 38.368 35.4876 33.1832 34.3535 27.8689C30.5622 29.9428 26.7709 32.1787 23.0444 34.5118C24.3405 40.0206 25.8311 45.3997 27.5486 50.6816Z" fill="#98AEB7"/>
</g>
<g id="Group_2">
<path id="Vector_13" d="M103.698 28.7429C103.018 28.7429 102.402 28.3864 102.046 27.8031C100.49 25.0812 96.5044 22.262 95.4998 21.7759C94.5601 21.3223 94.1712 20.1881 94.6249 19.2484C95.0785 18.3086 96.2127 17.9198 97.1524 18.3734C98.2866 18.9243 101.171 20.9334 103.374 23.3637C104.832 20.7714 107.392 16.818 110.568 13.934C111.346 13.2211 112.545 13.286 113.225 14.0637C113.938 14.8414 113.873 16.0403 113.095 16.7208C108.591 20.7714 105.416 27.6087 105.383 27.6735C105.092 28.3216 104.443 28.7429 103.763 28.7753H103.698V28.7429Z" fill="#4E82EA"/>
<path id="Vector_14" d="M104.119 39.7619C93.8146 39.7619 85.4219 31.3692 85.4219 21.0645C85.4219 10.7599 93.8146 2.36719 104.119 2.36719C114.424 2.36719 122.817 10.7599 122.817 21.0645C122.817 31.3692 114.424 39.7619 104.119 39.7619ZM104.119 6.15851C95.8885 6.15851 89.1808 12.8662 89.1808 21.097C89.1808 29.3277 95.8885 36.0354 104.119 36.0354C112.35 36.0354 119.058 29.3277 119.058 21.097C119.058 12.8662 112.35 6.15851 104.119 6.15851Z" fill="#4E82EA"/>
</g>
</g>
</svg>
