<svg width="124" height="109" viewBox="0 0 124 109" fill="none" xmlns="http://www.w3.org/2000/svg">
<g id="Group 1437257737">
<path id="Vector" d="M55.9614 3.41893L0.910897 98.7625C-1.71607 103.321 1.56764 109 6.82158 109H116.923C122.177 109 125.46 103.321 122.833 98.7625L67.7828 3.41893C65.1558 -1.13964 58.5884 -1.13964 56 3.41893L0.949508 98.7625C-1.67746 103.321 1.60625 109 6.86019 109H116.961C122.215 109 125.499 103.321 122.872 98.7625L67.8214 3.41893C65.1944 -1.13964 58.627 -1.13964 56.0386 3.41893H55.9614Z" fill="#FF3E3E"/>
<path id="Vector_2" d="M61.871 75.6227C58.6645 75.6227 56.0762 73.2275 56.0762 70.2915V38.6906C56.0762 35.7546 58.6645 33.3594 61.871 33.3594C65.0774 33.3594 67.6658 35.7546 67.6658 38.6906V70.2915C67.6658 73.2275 65.0774 75.6227 61.871 75.6227Z" fill="white"/>
<path id="Vector_3" d="M61.871 94.0896C65.0713 94.0896 67.6658 91.4952 67.6658 88.2948C67.6658 85.0944 65.0713 82.5 61.871 82.5C58.6706 82.5 56.0762 85.0944 56.0762 88.2948C56.0762 91.4952 58.6706 94.0896 61.871 94.0896Z" fill="white"/>
</g>
</svg>
