<svg width="100" height="81" viewBox="0 0 100 81" fill="none" xmlns="http://www.w3.org/2000/svg">
<path d="M65.3999 58.5283C68.7136 58.5283 71.3999 55.842 71.3999 52.5283C71.3999 49.2146 68.7136 46.5283 65.3999 46.5283C62.0862 46.5283 59.3999 49.2146 59.3999 52.5283C59.3999 55.842 62.0862 58.5283 65.3999 58.5283Z" fill="#589BFF"/>
<path d="M63.29 52.2881C64.1185 52.2881 64.79 51.6165 64.79 50.7881C64.79 49.9597 64.1185 49.2881 63.29 49.2881C62.4616 49.2881 61.79 49.9597 61.79 50.7881C61.79 51.6165 62.4616 52.2881 63.29 52.2881Z" fill="white"/>
<path d="M34.6899 58.5283C38.0036 58.5283 40.6899 55.842 40.6899 52.5283C40.6899 49.2146 38.0036 46.5283 34.6899 46.5283C31.3762 46.5283 28.6899 49.2146 28.6899 52.5283C28.6899 55.842 31.3762 58.5283 34.6899 58.5283Z" fill="#589BFF"/>
<path d="M32.5801 52.2881C33.4085 52.2881 34.0801 51.6165 34.0801 50.7881C34.0801 49.9597 33.4085 49.2881 32.5801 49.2881C31.7517 49.2881 31.0801 49.9597 31.0801 50.7881C31.0801 51.6165 31.7517 52.2881 32.5801 52.2881Z" fill="white"/>
<path d="M50 58.6284C47.5 58.6284 45.42 60.4184 45.01 62.7784C44.93 63.2284 45.28 63.6284 45.71 63.6284H54.29C54.72 63.6284 55.07 63.2184 54.99 62.7784C54.58 60.4184 52.5 58.6284 50 58.6284Z" fill="#589BFF"/>
<path d="M100 50.7684C100 22.7984 77.61 0.128418 50 0.128418C22.39 0.128418 0 22.7984 0 50.7684C0 61.7184 3.44 71.8384 9.27 80.1284C9.22 79.0784 9.18 78.0184 9.18 76.9484C9.18 49.2984 27.37 26.8684 49.84 26.7684C48.83 24.3484 49.21 20.3684 50.41 17.1784C52.08 12.7584 54.83 11.1684 57.84 12.3284C60.85 13.4884 61.85 16.5384 60.18 20.9584C59.97 21.5184 59.72 22.0784 59.45 22.6284C61.96 21.2384 63.89 21.5884 64.88 23.3584C65.88 25.1484 65.16 27.0384 62.59 28.5084C62.34 28.6484 62.08 28.7784 61.82 28.9084C78.6 35.1384 90.82 54.2884 90.82 76.9484C90.82 78.0184 90.78 79.0784 90.73 80.1284C96.56 71.8484 100 61.7184 100 50.7684Z" fill="#589BFF"/>
</svg>
