<svg width="124" height="124" viewBox="0 0 124 124" fill="none" xmlns="http://www.w3.org/2000/svg">
<g clip-path="url(#clip0_7133_241366)">
<path d="M120.44 107.759C125.173 103.758 122.91 93.3561 115.385 84.5254C107.859 75.6947 97.9215 71.7791 93.188 75.7797C88.4545 79.7803 90.7177 90.1821 98.243 99.0128C105.768 107.844 115.706 111.759 120.44 107.759Z" fill="#4E82EA"/>
<path d="M25.7577 98.9356C33.283 90.1049 35.5462 79.703 30.8126 75.7024C26.0791 71.7018 16.1413 75.6174 8.61602 84.4481C1.09071 93.2788 -1.17248 103.681 3.56105 107.681C8.29458 111.682 18.2323 107.766 25.7577 98.9356Z" fill="#4E82EA"/>
<path d="M20.2109 98.6667C20.4034 103.191 21.4428 107.37 23.0982 111.203H100.902C102.75 106.91 103.789 102.117 103.789 96.9798C103.789 89.1204 101.441 81.7977 97.3983 75.6251C96.9749 74.935 96.8594 74.1299 97.1289 73.3631C98.5918 69.0309 99.2463 64.3152 98.8228 59.4078C97.3984 42.0021 82.5768 28.0084 64.4445 26.8583C42.9244 25.5164 25.0231 41.887 25.0231 62.2833C25.0231 66.1555 25.6775 69.836 26.8325 73.3248C27.1019 74.0916 26.9865 74.8967 26.563 75.5868C22.2513 82.2194 19.8644 90.1172 20.2109 98.59V98.6667Z" fill="#7DA2FF"/>
<path d="M80.0697 20.2285C82.3796 14.2093 80.9937 10.0688 76.7975 8.49687C72.6012 6.92498 68.79 9.07195 66.4801 15.0911C64.1703 21.1103 64.0163 29.1998 68.2125 30.81C72.4087 32.4202 77.7599 26.2477 80.0697 20.2285Z" fill="#7DA2FF"/>
<path d="M83.3728 30.4655C86.9531 28.4718 87.954 25.9029 86.5681 23.4491C85.1822 20.9953 82.4489 20.5352 78.8686 22.5289C75.2883 24.5227 71.939 28.4334 73.3249 30.8489C74.7109 33.2644 79.8311 32.4209 83.4113 30.4272L83.3728 30.4655Z" fill="#7DA2FF"/>
<path d="M79.1914 60.9775C82.976 60.9775 86.044 57.922 86.044 54.1528C86.044 50.3836 82.976 47.3281 79.1914 47.3281C75.4069 47.3281 72.3389 50.3836 72.3389 54.1528C72.3389 57.922 75.4069 60.9775 79.1914 60.9775Z" fill="#280611"/>
<path d="M76.6207 53.3506C77.5562 53.3506 78.3146 52.5953 78.3146 51.6636C78.3146 50.7319 77.5562 49.9766 76.6207 49.9766C75.6851 49.9766 74.9268 50.7319 74.9268 51.6636C74.9268 52.5953 75.6851 53.3506 76.6207 53.3506Z" fill="white"/>
<path d="M44.8936 60.9775C48.6781 60.9775 51.7461 57.922 51.7461 54.1528C51.7461 50.3836 48.6781 47.3281 44.8936 47.3281C41.109 47.3281 38.041 50.3836 38.041 54.1528C38.041 57.922 41.109 60.9775 44.8936 60.9775Z" fill="#280611"/>
<path d="M42.3228 53.3506C43.2583 53.3506 44.0167 52.5953 44.0167 51.6636C44.0167 50.7319 43.2583 49.9766 42.3228 49.9766C41.3873 49.9766 40.6289 50.7319 40.6289 51.6636C40.6289 52.5953 41.3873 53.3506 42.3228 53.3506Z" fill="white"/>
<path d="M61.9769 63.2891C58.4737 63.2891 55.5864 65.2828 55.0089 67.8516C54.8934 68.3501 55.3939 68.8102 55.9713 68.8102H67.9441C68.56 68.8102 69.022 68.3501 68.9065 67.8516C68.329 65.2445 65.4417 63.2891 61.9385 63.2891H61.9769Z" fill="#280611"/>
<path d="M85.0015 64.2817H85.04L83.2307 60.9844L81.4213 64.2817H81.4597C81.2673 64.5884 81.1133 64.9335 81.1133 65.3552C81.1133 66.5055 82.0372 67.4256 83.1921 67.4256C84.347 67.4256 85.271 66.5055 85.271 65.3552C85.271 64.9718 85.117 64.6268 84.9246 64.2817H85.0015Z" fill="white"/>
<path d="M35 17.5C35 27.165 27.165 35 17.5 35C7.83502 35 0 27.165 0 17.5C0 7.83502 7.83502 0 17.5 0C27.165 0 35 7.83502 35 17.5Z" fill="#EBEFF2"/>
<path d="M28.8501 34.5973L27.8952 29.5388L23.9918 32.8951L28.8501 34.5973Z" fill="#EBEFF2"/>
<path d="M24.5603 26.6632C24.024 26.6632 23.4878 26.4639 23.0741 26.05L9.06976 12.0398C8.24237 11.2121 8.24237 9.89385 9.06976 9.06611C9.89715 8.23838 11.2148 8.23838 12.0422 9.06611L26.0465 23.0763C26.8739 23.904 26.8739 25.2223 26.0465 26.05C25.6328 26.4639 25.0966 26.6632 24.5603 26.6632Z" fill="#EF7070"/>
<path d="M10.556 26.6632C10.0197 26.6632 9.48345 26.4639 9.06976 26.05C8.24237 25.2223 8.24237 23.904 9.06976 23.0763L23.0741 9.06611C23.9015 8.23838 25.2191 8.23838 26.0465 9.06611C26.8739 9.89385 26.8739 11.2121 26.0465 12.0398L12.0422 26.05C11.6285 26.4639 11.0923 26.6632 10.556 26.6632Z" fill="#EF7070"/>
</g>
<defs>
<clipPath id="clip0_7133_241366">
<rect width="124" height="124" fill="white"/>
</clipPath>
</defs>
</svg>
