<svg width="1248" height="312" viewBox="0 0 1248 312" fill="none" xmlns="http://www.w3.org/2000/svg">
<rect width="1248" height="312" fill="#589BFF" fill-opacity="0.2"/>
<path fill-rule="evenodd" clip-rule="evenodd" d="M603.679 178.821L583.294 186.997L563 176.366C563 141.628 589.817 113.462 623.905 113.462C657.994 113.462 685.62 141.628 685.62 176.366C685.62 176.402 685.433 176.437 685.238 176.474L685.238 176.474C685.119 176.496 684.996 176.52 684.913 176.544L685.24 176.366L684.879 176.554C684.848 176.565 684.825 176.576 684.816 176.587L664.848 186.997L644.456 178.819L624.065 186.997L603.679 178.821ZM684.816 176.587L684.879 176.554C684.89 176.551 684.901 176.547 684.913 176.544L684.81 176.599C684.81 176.595 684.812 176.591 684.816 176.587ZM647.951 157.262C652.827 157.262 656.78 153.232 656.78 148.262C656.78 143.291 652.827 139.261 647.951 139.261C643.075 139.261 639.123 143.291 639.123 148.262C639.123 153.232 643.075 157.262 647.951 157.262ZM646.443 150.162C648.38 150.162 649.95 148.565 649.95 146.594C649.95 144.623 648.38 143.026 646.443 143.026C644.506 143.026 642.936 144.623 642.936 146.594C642.936 148.565 644.506 150.162 646.443 150.162ZM609.498 148.74C609.498 153.711 605.545 157.74 600.669 157.74C595.793 157.74 591.84 153.711 591.84 148.74C591.84 143.769 595.793 139.74 600.669 139.74C605.545 139.74 609.498 143.769 609.498 148.74ZM602.607 146.594C602.607 148.565 601.036 150.162 599.1 150.162C597.163 150.162 595.593 148.565 595.593 146.594C595.593 144.623 597.163 143.026 599.1 143.026C601.036 143.026 602.607 144.623 602.607 146.594ZM630.968 159.862L626.48 157.029H626.456C625.659 156.526 624.641 156.526 623.844 157.029L619.356 159.862C617.284 161.174 618.203 164.386 620.668 164.386H629.656C632.121 164.386 633.053 161.174 630.968 159.862Z" fill="white"/>
<path d="M646.382 101.654C649.631 92.9848 647.669 87.0009 641.808 84.7202C635.947 82.4395 630.576 85.5663 627.326 94.2355C624.077 102.905 623.881 114.627 629.754 116.908C635.628 119.189 643.132 110.335 646.382 101.654Z" fill="white"/>
<path d="M651.078 116.479C656.081 113.597 657.491 109.882 655.541 106.363C653.592 102.843 649.741 102.157 644.739 105.038C639.736 107.92 635.015 113.536 636.964 117.055C638.914 120.574 646.075 119.348 651.078 116.466V116.479Z" fill="white"/>
<path d="M671.063 204.657C669.983 204.657 669.095 204.345 668.399 203.721C667.727 203.073 667.391 202.281 667.391 201.345C667.391 200.385 667.727 199.593 668.399 198.969C669.095 198.321 669.983 197.997 671.063 197.997C672.119 197.997 672.983 198.321 673.655 198.969C674.351 199.593 674.699 200.385 674.699 201.345C674.699 202.281 674.351 203.073 673.655 203.721C672.983 204.345 672.119 204.657 671.063 204.657ZM674.123 206.745V226.833H667.967V206.745H674.123Z" fill="white"/>
<path d="M658.725 210.093C659.445 208.989 660.345 208.125 661.425 207.501C662.505 206.853 663.705 206.529 665.025 206.529V213.045H663.333C661.797 213.045 660.645 213.381 659.877 214.053C659.109 214.701 658.725 215.853 658.725 217.509V226.833H652.569V206.745H658.725V210.093Z" fill="white"/>
<path d="M626.911 216.753C626.911 214.689 627.295 212.877 628.063 211.317C628.855 209.757 629.923 208.557 631.267 207.717C632.611 206.877 634.111 206.457 635.767 206.457C637.183 206.457 638.419 206.745 639.475 207.321C640.555 207.897 641.383 208.653 641.959 209.589V206.745H648.115V226.833H641.959V223.989C641.359 224.925 640.519 225.681 639.439 226.257C638.383 226.833 637.147 227.121 635.731 227.121C634.099 227.121 632.611 226.701 631.267 225.861C629.923 224.997 628.855 223.785 628.063 222.225C627.295 220.641 626.911 218.817 626.911 216.753ZM641.959 216.789C641.959 215.253 641.527 214.041 640.663 213.153C639.823 212.265 638.791 211.821 637.567 211.821C636.343 211.821 635.299 212.265 634.435 213.153C633.595 214.017 633.175 215.217 633.175 216.753C633.175 218.289 633.595 219.513 634.435 220.425C635.299 221.313 636.343 221.757 637.567 221.757C638.791 221.757 639.823 221.313 640.663 220.425C641.527 219.537 641.959 218.325 641.959 216.789Z" fill="white"/>
<path d="M620.614 204.657C619.534 204.657 618.646 204.345 617.95 203.721C617.278 203.073 616.942 202.281 616.942 201.345C616.942 200.385 617.278 199.593 617.95 198.969C618.646 198.321 619.534 197.997 620.614 197.997C621.67 197.997 622.534 198.321 623.206 198.969C623.902 199.593 624.25 200.385 624.25 201.345C624.25 202.281 623.902 203.073 623.206 203.721C622.534 204.345 621.67 204.657 620.614 204.657ZM623.674 206.745V226.833H617.518V206.745H623.674Z" fill="white"/>
<path d="M608.276 210.093C608.996 208.989 609.896 208.125 610.976 207.501C612.056 206.853 613.256 206.529 614.576 206.529V213.045H612.884C611.348 213.045 610.196 213.381 609.428 214.053C608.66 214.701 608.276 215.853 608.276 217.509V226.833H602.12V206.745H608.276V210.093Z" fill="white"/>
<path d="M591.309 222.369H581.877L580.365 226.833H573.921L583.065 201.561H590.193L599.337 226.833H592.821L591.309 222.369ZM589.725 217.617L586.593 208.365L583.497 217.617H589.725Z" fill="white"/>
</svg>
